<?xml version="1.0" encoding="UTF-8"?>
<svg id="_圖層_1" data-name="圖層 1" xmlns="http://www.w3.org/2000/svg" xmlns:xlink="http://www.w3.org/1999/xlink" viewBox="0 0 422.9039 373.66696">
  <defs>
    <style>
      .cls-1 {
        fill: url(#_未命名漸層_14-8);
      }

      .cls-2 {
        fill: url(#_未命名漸層_14);
      }

      .cls-3 {
        fill: url(#_未命名漸層_14-12);
      }

      .cls-4 {
        fill: url(#_未命名漸層_14-7);
      }

      .cls-5 {
        fill: url(#_未命名漸層_14-13);
      }

      .cls-6 {
        fill: url(#_未命名漸層_14-4);
      }

      .cls-7 {
        fill: url(#_未命名漸層_14-14);
      }

      .cls-8 {
        fill: url(#_未命名漸層_14-9);
      }

      .cls-9 {
        fill: url(#_未命名漸層_14-5);
      }

      .cls-10 {
        fill: url(#_未命名漸層_14-2);
      }

      .cls-11 {
        fill: url(#_未命名漸層_14-11);
      }

      .cls-12 {
        fill: url(#_未命名漸層_14-10);
      }

      .cls-13 {
        fill: url(#_未命名漸層_14-6);
      }

      .cls-14 {
        fill: url(#_未命名漸層_14-3);
      }
    </style>
    <radialGradient id="_未命名漸層_14" data-name="未命名漸層 14" cx="194.24443" cy="6355.32656" fx="194.24443" fy="6355.32656" r="273.32394" gradientTransform="translate(0 6516.36618) scale(1 -1)" gradientUnits="userSpaceOnUse">
      <stop offset=".28771" stop-color="#fff" stop-opacity="0"/>
      <stop offset=".77654" stop-color="#fff"/>
    </radialGradient>
    <radialGradient id="_未命名漸層_14-2" data-name="未命名漸層 14" cx="193.48397" cy="6355.95968" fx="193.48397" fy="6355.95968" r="273.42949" xlink:href="#_未命名漸層_14"/>
    <radialGradient id="_未命名漸層_14-3" data-name="未命名漸層 14" cx="191.67411" cy="6354.93476" fx="191.67411" fy="6354.93476" r="275.47225" xlink:href="#_未命名漸層_14"/>
    <radialGradient id="_未命名漸層_14-4" data-name="未命名漸層 14" cx="192.97332" cy="6356.09309" fx="192.97332" fy="6356.09309" r="273.73594" xlink:href="#_未命名漸層_14"/>
    <radialGradient id="_未命名漸層_14-5" data-name="未命名漸層 14" cx="191.97502" cy="6355.72967" fx="191.97502" fy="6355.72967" r="275.39058" xlink:href="#_未命名漸層_14"/>
    <radialGradient id="_未命名漸層_14-6" data-name="未命名漸層 14" cx="191.98997" cy="6354.38078" fx="191.98997" fy="6354.38078" r="274.52729" xlink:href="#_未命名漸層_14"/>
    <radialGradient id="_未命名漸層_14-7" data-name="未命名漸層 14" cx="192.0264" cy="6358.14664" fx="192.0264" fy="6358.14664" r="269.45241" xlink:href="#_未命名漸層_14"/>
    <radialGradient id="_未命名漸層_14-8" data-name="未命名漸層 14" cx="190.05115" cy="6355.34405" fx="190.05115" fy="6355.34405" r="272.21802" xlink:href="#_未命名漸層_14"/>
    <radialGradient id="_未命名漸層_14-9" data-name="未命名漸層 14" cx="194.05881" cy="6357.68942" fx="194.05881" fy="6357.68942" r="266.37996" xlink:href="#_未命名漸層_14"/>
    <radialGradient id="_未命名漸層_14-10" data-name="未命名漸層 14" cx="191.63214" cy="6354.95673" fx="191.63214" fy="6354.95673" r="274.99888" xlink:href="#_未命名漸層_14"/>
    <radialGradient id="_未命名漸層_14-11" data-name="未命名漸層 14" cx="191.95756" cy="6355.57417" fx="191.95756" fy="6355.57417" r="274.71314" xlink:href="#_未命名漸層_14"/>
    <radialGradient id="_未命名漸層_14-12" data-name="未命名漸層 14" cx="193.03991" cy="6354.9089" fx="193.03991" fy="6354.9089" r="270.31051" xlink:href="#_未命名漸層_14"/>
    <radialGradient id="_未命名漸層_14-13" data-name="未命名漸層 14" cx="191.67211" cy="6355.88506" fx="191.67211" fy="6355.88506" r="272.55171" xlink:href="#_未命名漸層_14"/>
    <radialGradient id="_未命名漸層_14-14" data-name="未命名漸層 14" cx="192.21477" cy="6353.43507" fx="192.21477" fy="6353.43507" r="267.46197" xlink:href="#_未命名漸層_14"/>
  </defs>
  <path class="cls-2" d="m408.01637,142.1488c1.65197,10.50594,2.40104,21.5216,2.42052,32.34523h12.46701c-.08571-46.14365-14.40694-91.85589-41.27067-129.43923-6.44802-9.0204-13.55517-17.5082-21.20988-25.43994-1.7004-1.76194-4.53854-1.75735-6.26999-.0259l-2.49085,2.49084c-1.71094,1.71094-1.70157,4.46232-.02128,6.20335.05163.05349.10318.10709.15465.16076,29.84589,31.12642,49.50696,71.00741,56.22049,113.70489Z"/>
  <g>
    <path class="cls-10" d="m334.41933,45.2828c22.06787,23.04608,37.81473,51.50852,45.85331,82.27828.59831,2.29019,2.94093,3.6645,5.24512,3.12258l3.30129-.77642c2.43725-.57321,3.88053-3.0155,3.25398-5.43956-6.0429-23.37827-16.2782-45.64284-30.41168-65.3796-17.28537-24.13807-39.68901-44.11514-65.41019-58.53659-2.14655-1.20355-4.86798-.36469-6.01803,1.81099l-1.57586,2.98125c-1.11764,2.1144-.37225,4.75764,1.71563,5.92409,16.21217,9.05731,31.09622,20.49065,44.04646,34.01498l-.00002-.00002Z"/>
    <path class="cls-14" d="m243.05491,360.74565c-.54256-2.30673-2.81994-3.78613-5.13936-3.30072-29.6504,6.20535-60.63441,5.24567-89.89531-3.06243-36.40511-10.33681-68.94748-31.83926-93.12384-60.97288-24.2655-29.24075-39.22559-66.28015-42.08607-104.17092-2.56184-33.93082,4.04356-67.9578,19.14391-98.25875,1.07387-2.15488.27118-4.76955-1.8574-5.89468l-2.95696-1.563c-2.17087-1.1475-4.88961-.31175-5.98789,1.88442C9.66196,108.38288,2.59265,133.47273.58501,159.34424c-3.19419,41.16324,6.75978,83.07216,28.1968,118.36244,20.63362,33.96775,51.52576,61.66001,87.75373,78.07517,38.40676,17.40286,81.63506,22.27013,122.96971,13.87869.33079-.06718.66112-.13618.9911-.20665,2.40948-.51456,3.9195-2.92211,3.35539-5.32046l-.79687-3.38783.00002.00005Z"/>
  </g>
  <path class="cls-6" d="m360.82833,128.08263l3.1049-.89192c2.4119-.69285,3.73137-3.20624,2.98022-5.60063-5.43031-17.30992-13.50043-33.78367-24.09095-48.63844-19.87389-27.87649-47.43479-49.53175-79.22035-62.13864l-5.82795,2.5788-1.12036,3.08445c-.80557,2.21785.27353,4.70229,2.46863,5.56792,21.93678,8.65054,41.91051,21.96697,58.35513,39.08728,17.45223,18.16956,30.38987,40.20946,37.96289,64.09684.71431,2.2531,3.11608,3.50695,5.38784,2.85437v-.00002Z"/>
  <g>
    <path class="cls-9" d="m300.15531,77.91888c17.3859,18.12893,29.49204,40.74826,35.19227,65.11582.5352,2.28788,2.81846,3.71636,5.12279,3.25715l2.99912-.59767c2.4721-.49265,3.99838-2.89771,3.43231-5.35404-4.40819-19.12806-12.46301-37.38221-23.93179-53.43699-17.92171-25.08775-43.01348-44.302-71.96968-54.92622-15.08328-5.53417-31.08941-8.52817-47.17289-9.00376-2.51896-.07448-4.57916,1.90202-4.57916,4.42208v3.06549c0,2.35687,1.85698,4.32164,4.21281,4.39128,7.92129.23413,15.81384,1.1322,23.55257,2.71558,27.85795,5.70038,53.46055,19.83021,73.14163,40.35127h.00002Z"/>
    <path class="cls-13" d="m330.34307,234.03442c-2.14993-.97716-4.70734-.09193-5.74489,2.0295-3.34378,6.83682-7.25236,13.42317-11.70443,19.68833-16.08691,22.63728-39.33073,40.39356-65.43158,49.89068-14.15828,5.15134-29.048,7.97544-44.01085,8.43073-2.35179.07157-4.20302,2.03793-4.20302,4.39079v3.06831c0,2.51569,2.05643,4.48961,4.57116,4.41989,8.69135-.24098,17.38274-1.21467,25.97528-2.95027,29.87447-6.0341,57.71184-21.5153,78.79517-43.49887,10.79843-11.26002,19.83469-24.19243,26.72721-38.17473,1.11508-2.26209.16619-4.95808-2.12977-6.00162l-2.84424-1.29275h-.00002Z"/>
  </g>
  <g>
    <path class="cls-4" d="m212.99555,56.70444l.34336-2.93706c.29387-2.51389-1.58477-4.75108-4.10988-4.92406-16.61628-1.1383-33.33794,1.04094-49.06952,6.26123-2.39577.795-3.64927,3.36086-2.77642,5.72938l1.03992,2.82186c.81799,2.21969,3.24894,3.39806,5.4911,2.64385,14.17088-4.76673,29.28048-6.80964,44.43434-5.72537,2.33259.1669,4.37562-1.54709,4.64714-3.86983h-.00002Z"/>
    <path class="cls-1" d="m89.30686,216.77732c2.18434-.83904,3.33166-3.24513,2.58966-5.46432-10.5293-31.49085-7.19689-67.20433,10.4772-96.2273,3.4793-5.71279,7.44854-11.03849,11.81751-15.9605,1.56221-1.75997,1.43253-4.4431-.26996-6.06776l-2.22419-2.12251c-1.81069-1.72791-4.70452-1.6188-6.36041.25798-.85199.96565-1.68946,1.94675-2.50925,2.94602-16.49089,20.09536-26.45914,44.61913-28.56365,70.54228-1.38293,17.03562.862,34.31844,6.36284,50.49163.80986,2.38109,3.43386,3.61969,5.78166,2.71786l2.8986-1.11341v.00002Z"/>
  </g>
  <g>
    <path class="cls-8" d="m271.47688,116.83857l2.24879-1.79714c1.97179-1.57575,2.22726-4.48605.55799-6.3793-7.99803-9.07122-17.64608-16.74078-28.57216-22.47954-2.25211-1.18288-4.9808-.27118-6.06425,2.03041l-1.2389,2.63184c-1.0007,2.1258-.14914,4.65656,1.93042,5.75007,9.53535,5.014,18.02811,11.73782,25.1178,19.72569,1.55149,1.74804,4.19445,1.97708,6.0203.51796h.00002Z"/>
    <path class="cls-12" d="m220.9056,264.11448c-.54327-2.2527-2.74278-3.69836-5.02387-3.29025-30.91803,5.5315-63.17238-5.82466-83.73243-30.43056-23.66382-28.31993-26.39686-70.01344-7.33177-101.445,6.89702-11.36992,16.27141-20.81022,27.13371-27.8698,1.95319-1.26941,2.56386-3.84501,1.39913-5.86237l-1.47982-2.56308c-1.25898-2.1806-4.09291-2.88465-6.2097-1.52113-8.31895,5.35859-15.87041,11.9843-22.27527,19.77755-26.58314,32.34523-30.48016,79.062-8.67286,115.03628,21.36055,35.23589,62.97087,53.67513,103.34845,46.42092l3.52872-5.41504-.68429-2.83747v-.00005Z"/>
  </g>
  <path class="cls-11" d="m136.94311,186.37973c2.26593-.43807,3.77917-2.55138,3.51739-4.84439-1.48692-13.0239,1.16821-26.5215,8.066-37.98658,9.99144-16.60758,27.77599-27.27195,46.72526-28.84542,2.28383-.18964,4.04794-2.07427,4.04794-4.36597v-2.82106c0-2.55484-2.16564-4.61175-4.71244-4.40905-19.02603,1.51431-37.38719,10.48071-49.71839,25.51169-12.64864,15.41687-18.17824,35.30399-15.95594,54.52419.29298,2.53397,2.72039,4.2631,5.22487,3.77892l2.80527-.54234h.00003Z"/>
  <path class="cls-3" d="m242.73436,164.5416l-2.84387.64456c-2.14957.4872-3.68021,2.6734-3.38561,4.85772.19696,1.46022.30928,2.94438.32334,4.45015-.00014.01373-.00027.02743-.00041.04113-.02473,2.23485,1.68258,4.26468,3.90369,4.51326l2.88598.32299c2.55197.2856,4.83184-1.66174,4.90133-4.22871.00585-.21594.00985-.43216.01191-.64867-.0195-2.0975-.17454-4.16997-.4552-6.20902-.35454-2.57568-2.80547-4.31812-5.34114-3.74341Z"/>
  <path class="cls-5" d="m168.21844,155.6558c7.7809-13.103,23.54152-20.43362,38.58503-17.42801.65255.13027,1.28452.30913,1.92338.47199l1.80854-6.79312c.71291-2.67777-.95801-5.1183-3.70207-5.50409-16.40735-2.30668-33.74673,4.13053-44.31241,17.13762-11.97443,14.74091-14.54021,35.44226-6.1933,52.40567l6.38892,1.8181,2.41701-1.54662c1.91231-1.22368,2.52799-3.67121,1.55118-5.72065-5.21539-10.94245-4.74446-24.26944,1.53373-34.8409v.00002Z"/>
  <path class="cls-7" d="m212.85071,209.0792c-8.79354,3.1284-18.1554,2.87112-26.43395-.37056-2.08549-.81664-4.44855.16288-5.45113,2.16564l-1.27813,2.55318c-1.16912,2.3354-.04007,5.12805,2.3886,6.08848,8.55078,3.38147,18.06048,4.39909,27.44958,2.60685,4.24529-.81031,8.25761-2.2092,11.98489-4.08561,2.40086-1.20866,3.1681-4.0603,1.714-6.32096l-1.54527-2.40244c-1.18491-1.84214-3.56403-2.57816-5.53369-1.62011-1.06475.5179-2.16257.98281-3.29489,1.38553Z"/>
</svg>