<?xml version="1.0" encoding="UTF-8"?>
<svg id="_圖層_1" data-name="圖層 1" xmlns="http://www.w3.org/2000/svg" xmlns:xlink="http://www.w3.org/1999/xlink" viewBox="0 0 428.42508 428.42508">
  <defs>
    <style>
      .cls-1 {
        fill: url(#_未命名漸層_10-3);
      }

      .cls-2 {
        fill: url(#_未命名漸層_10);
      }

      .cls-3 {
        fill: url(#_未命名漸層_10-2);
      }

      .cls-4 {
        fill: url(#_未命名漸層_10-4);
      }
    </style>
    <linearGradient id="_未命名漸層_10" data-name="未命名漸層 10" x1="139.30562" y1="62.17712" x2="48.53759" y2="231.61077" gradientUnits="userSpaceOnUse">
      <stop offset="0" stop-color="#fff" stop-opacity="0"/>
      <stop offset="1" stop-color="#fff"/>
    </linearGradient>
    <linearGradient id="_未命名漸層_10-2" data-name="未命名漸層 10" x1="402.78644" y1="42.42573" x2="312.01841" y2="211.85938" gradientTransform="translate(19.75139 691.9059) rotate(-90)" xlink:href="#_未命名漸層_10"/>
    <linearGradient id="_未命名漸層_10-3" data-name="未命名漸層 10" x1="422.53783" y1="305.90655" x2="331.7698" y2="475.34021" gradientTransform="translate(711.65729 672.15452) rotate(-180)" xlink:href="#_未命名漸層_10"/>
    <linearGradient id="_未命名漸層_10-4" data-name="未命名漸層 10" x1="159.05701" y1="325.65794" x2="68.28898" y2="495.0916" gradientTransform="translate(691.9059 -19.75139) rotate(90)" xlink:href="#_未命名漸層_10"/>
  </defs>
  <path class="cls-2" d="m195.52955,86.04048c0-30.76706-24.9418-55.70886-55.709-55.70886-10.42898,0-20.18404,2.87278-28.52997,7.85989l-.18051-.28627C44.3691,80.00879.02067,154.37803.00071,239.11691c0,.00949-.00071.01897-.00071.02846,0,.00311.00028.00637.00028.00949,0,.00637-.00028.01246-.00028.01883h.00071c.01529,30.81661,25.00126,55.79409,55.8217,55.79409s55.80627-24.97748,55.82156-55.79409h.00071c0-43.98769,22.53623-82.68217,56.66706-105.26187,16.297-9.72024,27.21782-27.51712,27.21782-47.87134Z"/>
  <path class="cls-3" d="m86.04048,232.89553c-30.76706,0-55.70886,24.9418-55.70886,55.709,0,10.42898,2.87278,20.18404,7.85989,28.52997l-.28627.18051c42.10356,66.74096,116.47279,111.0894,201.21168,111.10936.00949,0,.01897.00071.02846.00071.00311,0,.00637-.00028.00949-.00028.00637,0,.01246.00028.01883.00028v-.00071c30.81661-.01529,55.79409-25.00126,55.79409-55.8217,0-30.82029-24.97748-55.80627-55.79409-55.82156v-.00071c-43.98769,0-82.68217-22.53623-105.26187-56.66706-9.72024-16.297-27.51712-27.21782-47.87134-27.21782Z"/>
  <path class="cls-1" d="m232.89553,342.3846c0,30.76706,24.9418,55.70886,55.709,55.70886,10.42898,0,20.18404-2.87278,28.52997-7.85989l.18051.28627c66.74096-42.10356,111.0894-116.47279,111.10936-201.21168,0-.00949.00071-.01897.00071-.02846,0-.00311-.00028-.00637-.00028-.00949,0-.00637.00028-.01246.00028-.01883h-.00071c-.01529-30.81661-25.00126-55.79409-55.8217-55.79409-30.82029,0-55.80627,24.97748-55.82156,55.79409h-.00071c0,43.98769-22.53623,82.68217-56.66706,105.26187-16.297,9.72024-27.21782,27.51712-27.21782,47.87134Z"/>
  <path class="cls-4" d="m342.3846,195.52955c30.76706,0,55.70886-24.9418,55.70886-55.709,0-10.42898-2.87278-20.18404-7.85989-28.52997l.28627-.18051C348.41629,44.3691,274.04706.02067,189.30817.00071c-.00949,0-.01897-.00071-.02846-.00071-.00311,0-.00637.00028-.00949.00028-.00637,0-.01246-.00028-.01883-.00028v.00071c-30.81661.01529-55.79409,25.00126-55.79409,55.8217,0,30.82029,24.97748,55.80627,55.79409,55.82156v.00071c43.98769,0,82.68217,22.53623,105.26187,56.66706,9.72024,16.297,27.51712,27.21782,47.87134,27.21782Z"/>
</svg>