<?xml version="1.0" encoding="UTF-8"?>
<svg id="_圖層_1" data-name="圖層 1" xmlns="http://www.w3.org/2000/svg" viewBox="0 0 942.46913 294.6864">
  <defs>
    <style>
      .cls-1 {
        stroke-width: .9263px;
      }

      .cls-1, .cls-2, .cls-3, .cls-4, .cls-5, .cls-6, .cls-7, .cls-8, .cls-9, .cls-10 {
        stroke-miterlimit: 10;
      }

      .cls-1, .cls-2, .cls-3, .cls-4, .cls-5, .cls-6, .cls-9 {
        fill: #fff;
      }

      .cls-1, .cls-5, .cls-6 {
        stroke: #040000;
      }

      .cls-2, .cls-4, .cls-7, .cls-8, .cls-9, .cls-10 {
        stroke: #060404;
      }

      .cls-2, .cls-10 {
        stroke-width: .9768px;
      }

      .cls-11 {
        fill: #231815;
        font-family: MicrosoftJhengHeiLight, 'Microsoft JhengHei';
        font-size: 30px;
      }

      .cls-3 {
        stroke: #050101;
        stroke-width: .68327px;
      }

      .cls-4 {
        stroke-width: .98426px;
      }

      .cls-5 {
        stroke-width: .83925px;
      }

      .cls-12 {
        fill: #060404;
      }

      .cls-6 {
        stroke-width: .78471px;
      }

      .cls-7 {
        stroke-width: 1.38482px;
      }

      .cls-7, .cls-8 {
        fill: none;
      }

      .cls-8 {
        stroke-width: .45699px;
      }

      .cls-9 {
        stroke-width: 1.27648px;
      }

      .cls-10 {
        fill: #040000;
      }
    </style>
  </defs>
  <g>
    <g>
      <path class="cls-12" d="m67.14882,10.34369c-9.72429.53599-19.44858,1.07197-29.17287,1.60796-1.62305.08946-3.28844.07982-4.90345.27027-.62444.07364.15921.09808-.25575.01988-.52978-.09984-1.06147-.19052-1.5921-.28576-5.41979-.97278-10.83958-1.94557-16.25936-2.91835-4.55019-.8167-9.10037-1.6334-13.65056-2.45011-.65417-.11742-1.31472.27788-1.31472,1.00152v78.8445c0,.72363.66055,1.11893,1.31472,1.00152,9.50935-1.70681,19.0187-3.41362,28.52805-5.12043l2.40426-.43153c.2259-.04055,1.09694-.07184.50153-.10023,1.16882.05572,2.33708.12882,3.50545.19321,5.84196.322,11.68392.644,17.52587.96599,4.45631.24562,8.91263.49125,13.36894.73687.86034.04742,1.42298-1.19762.73441-1.77303.24599.20556.22516.85054.2879.56951.02807-.12575-.01044-.30119-.01412-.43032-.01433-.50289-.01864-1.0062-.02475-1.50923-.02112-1.73683-.03081-3.47381-.04003-5.21074-.03007-5.66757-.04028-11.33527-.04743-17.00291-.01597-12.65537-.01772-25.31108.03933-37.96636.00959-2.12852.01985-4.25709.04266-6.38552.00654-.61038.01234-1.22089.02651-1.83115.00388-.16714.0402-.3678.0152-.5332-.06362-.42089.01172.26248-.28528.51067,1.0269-.85814-.44928-2.32081-1.46883-1.46883-.54357.45424-.3466,1.87695-.35488,2.48526-.02313,1.69781-.03249,3.39583-.04197,5.09376-.03184,5.70554-.04207,11.41122-.04953,17.11683-.01692,12.94479-.02,25.88998.04123,38.83467.00988,2.08816.0199,4.1764.04466,6.26445.00789.66531-.24761,2.42377.36048,2.93193l.73441-1.77303c-9.78561-.53937-19.57122-1.07873-29.35683-1.6181-1.58466-.08734-3.18444-.24734-4.77182-.26301-.74765-.00738-1.49326.1896-2.22845.32156-5.45955.97992-10.91909,1.95984-16.37864,2.93976-4.55019.8167-9.10037,1.6334-13.65056,2.45011l1.31472,1.00152V7.58909l-1.31472,1.00152c9.56031,1.71596,19.12062,3.43191,28.68093,5.14787,1.07173.19236,2.20543.52515,3.29795.57892,1.09905.05409,2.25886-.1245,3.35566-.18496,5.89428-.32488,11.78856-.64976,17.68283-.97465,4.45631-.24562,8.91263-.49125,13.36894-.73687,1.32939-.07327,1.33794-2.15098,0-2.07723Z"/>
      <path class="cls-12" d="m31.45067,81.37813V12.51686c0-1.3366-2.07723-1.33881-2.07723,0v68.86127c0,1.3366,2.07723,1.33881,2.07723,0h0Z"/>
      <path class="cls-12" d="m34.56785,13.18857v67.73586c0,1.3366,2.07723,1.33881,2.07723,0V13.18857c0-1.3366-2.07723-1.33881-2.07723,0h0Z"/>
      <path class="cls-12" d="m40.61892,13.18857v67.73586c0,1.3366,2.07723,1.33881,2.07723,0V13.18857c0-1.3366-2.07723-1.33881-2.07723,0h0Z"/>
      <path class="cls-12" d="m1.17407,21.42977c9.98297.6116,19.96594,1.22321,29.94891,1.83481,1.44181.08833,2.88362.17666,4.32543.265,1.33512.0818,1.33028-1.99573,0-2.07723-9.98297-.6116-19.96594-1.22321-29.94891-1.83481-1.44181-.08833-2.88362-.17666-4.32543-.265-1.33512-.0818-1.33028,1.99573,0,2.07723h0Z"/>
      <path class="cls-12" d="m1.17407,21.42977c9.98297.6116,19.96594,1.22321,29.94891,1.83481,1.44181.08833,2.88362.17666,4.32543.265,1.33512.0818,1.33028-1.99573,0-2.07723-9.98297-.6116-19.96594-1.22321-29.94891-1.83481-1.44181-.08833-2.88362-.17666-4.32543-.265-1.33512-.0818-1.33028,1.99573,0,2.07723h0Z"/>
      <path class="cls-12" d="m1.17407,74.60242c9.98297-.6116,19.96594-1.22321,29.94891-1.83481,1.44181-.08833,2.88362-.17666,4.32543-.265,1.32809-.08137,1.33734-2.15916,0-2.07723-9.98297.6116-19.96594,1.22321-29.94891,1.83481-1.44181.08833-2.88362.17666-4.32543.265-1.32809.08137-1.33734,2.15916,0,2.07723h0Z"/>
      <path class="cls-12" d="m12.82464,39.15398h17.97258c1.3366,0,1.33881-2.07723,0-2.07723H12.82464c-1.3366,0-1.33881,2.07723,0,2.07723h0Z"/>
      <path class="cls-12" d="m12.82464,57.35235h17.97258c1.3366,0,1.33881-2.07723,0-2.07723H12.82464c-1.3366,0-1.33881,2.07723,0,2.07723h0Z"/>
      <path class="cls-12" d="m53.20973,11.7158c-3.65817,9.07622-7.31634,18.15244-10.97451,27.22866-.51887,1.28737-1.03775,2.57473-1.55662,3.8621-.4996,1.23955,1.50881,1.77842,2.00303.55221,3.65817-9.07622,7.31634-18.15244,10.97451-27.22866.51887-1.28737,1.03775-2.57473,1.55662-3.8621.4996-1.23955-1.50881-1.77842-2.00303-.55221h0Z"/>
      <path class="cls-12" d="m53.20973,11.7158c-3.65817,9.07622-7.31634,18.15244-10.97451,27.22866-.51887,1.28737-1.03775,2.57473-1.55662,3.8621-.4996,1.23955,1.50881,1.77842,2.00303.55221,3.65817-9.07622,7.31634-18.15244,10.97451-27.22866.51887-1.28737,1.03775-2.57473,1.55662-3.8621.4996-1.23955-1.50881-1.77842-2.00303-.55221h0Z"/>
      <path class="cls-12" d="m55.21277,81.94283c-3.65817-9.07622-7.31634-18.15244-10.97451-27.22866-.51887-1.28737-1.03775-2.57473-1.55662-3.8621-.49342-1.22422-2.50349-.68948-2.00303.55221,3.65817,9.07622,7.31634,18.15244,10.97451,27.22866.51887,1.28737,1.03775,2.57473,1.55662,3.8621.49342,1.22422,2.50349.68948,2.00303-.55221h0Z"/>
    </g>
    <g>
      <path class="cls-12" d="m67.14882,110.67555c-9.72429.53599-19.44858,1.07197-29.17287,1.60796-1.62305.08946-3.28844.07982-4.90345.27027-.62444.07364.15921.09808-.25575.01988-.52978-.09984-1.06147-.19052-1.5921-.28576-5.41979-.97278-10.83958-1.94557-16.25936-2.91835-4.55019-.8167-9.10037-1.6334-13.65056-2.45011-.65417-.11742-1.31472.27788-1.31472,1.00152v78.8445c0,.72363.66055,1.11893,1.31472,1.00152,9.50935-1.70681,19.0187-3.41362,28.52805-5.12043l2.40426-.43153c.2259-.04055,1.09694-.07184.50153-.10023,1.16882.05572,2.33708.12882,3.50545.19321,5.84196.322,11.68392.644,17.52587.96599,4.45631.24562,8.91263.49125,13.36894.73687.86034.04742,1.42298-1.19762.73441-1.77303.24599.20556.22516.85054.2879.56951.02807-.12575-.01044-.30119-.01412-.43032-.01433-.50289-.01864-1.0062-.02475-1.50923-.02112-1.73683-.03081-3.47381-.04003-5.21074-.03007-5.66757-.04028-11.33527-.04743-17.00291-.01597-12.65537-.01772-25.31108.03933-37.96636.00959-2.12852.01985-4.25709.04266-6.38552.00654-.61038.01234-1.22089.02651-1.83115.00388-.16714.0402-.3678.0152-.5332-.06362-.42089.01172.26248-.28528.51067,1.0269-.85814-.44928-2.32081-1.46883-1.46883-.54357.45424-.3466,1.87695-.35488,2.48526-.02313,1.69781-.03249,3.39583-.04197,5.09376-.03184,5.70554-.04207,11.41122-.04953,17.11683-.01692,12.94479-.02,25.88998.04123,38.83467.00988,2.08816.0199,4.1764.04466,6.26445.00789.66531-.24761,2.42377.36048,2.93193l.73441-1.77303c-9.78561-.53937-19.57122-1.07873-29.35683-1.6181-1.58466-.08734-3.18444-.24734-4.77182-.26301-.74765-.00738-1.49326.1896-2.22845.32156-5.45955.97992-10.91909,1.95984-16.37864,2.93976-4.55019.8167-9.10037,1.6334-13.65056,2.45011l1.31472,1.00152v-78.8445l-1.31472,1.00152c9.56031,1.71596,19.12062,3.43191,28.68093,5.14787,1.07173.19236,2.20543.52515,3.29795.57892,1.09905.05409,2.25886-.1245,3.35566-.18496,5.89428-.32488,11.78856-.64976,17.68283-.97465,4.45631-.24562,8.91263-.49125,13.36894-.73687,1.32939-.07327,1.33794-2.15098,0-2.07723Z"/>
      <path class="cls-12" d="m31.45067,181.70999v-68.86127c0-1.3366-2.07723-1.33881-2.07723,0v68.86127c0,1.3366,2.07723,1.33881,2.07723,0h0Z"/>
      <path class="cls-12" d="m34.56785,113.52043v67.73586c0,1.3366,2.07723,1.33881,2.07723,0v-67.73586c0-1.3366-2.07723-1.33881-2.07723,0h0Z"/>
      <path class="cls-12" d="m40.61892,113.52043v67.73586c0,1.3366,2.07723,1.33881,2.07723,0v-67.73586c0-1.3366-2.07723-1.33881-2.07723,0h0Z"/>
      <path class="cls-12" d="m1.17407,121.76163c9.98297.6116,19.96594,1.22321,29.94891,1.83481,1.44181.08833,2.88362.17666,4.32543.265,1.33512.0818,1.33028-1.99573,0-2.07723-9.98297-.6116-19.96594-1.22321-29.94891-1.83481-1.44181-.08833-2.88362-.17666-4.32543-.265-1.33512-.0818-1.33028,1.99573,0,2.07723h0Z"/>
      <path class="cls-12" d="m1.17407,121.76163c9.98297.6116,19.96594,1.22321,29.94891,1.83481,1.44181.08833,2.88362.17666,4.32543.265,1.33512.0818,1.33028-1.99573,0-2.07723-9.98297-.6116-19.96594-1.22321-29.94891-1.83481-1.44181-.08833-2.88362-.17666-4.32543-.265-1.33512-.0818-1.33028,1.99573,0,2.07723h0Z"/>
      <path class="cls-12" d="m1.17407,174.93428c9.98297-.6116,19.96594-1.22321,29.94891-1.83481,1.44181-.08833,2.88362-.17666,4.32543-.265,1.32809-.08137,1.33734-2.15916,0-2.07723-9.98297.6116-19.96594,1.22321-29.94891,1.83481-1.44181.08833-2.88362.17666-4.32543.265-1.32809.08137-1.33734,2.15916,0,2.07723h0Z"/>
      <path class="cls-12" d="m12.82464,139.48584h17.97258c1.3366,0,1.33881-2.07723,0-2.07723H12.82464c-1.3366,0-1.33881,2.07723,0,2.07723h0Z"/>
      <path class="cls-12" d="m12.82464,157.68421h17.97258c1.3366,0,1.33881-2.07723,0-2.07723H12.82464c-1.3366,0-1.33881,2.07723,0,2.07723h0Z"/>
      <path class="cls-12" d="m53.20973,112.04766c-3.65817,9.07622-7.31634,18.15244-10.97451,27.22866-.51887,1.28737-1.03775,2.57473-1.55662,3.8621-.4996,1.23955,1.50881,1.77842,2.00303.55221,3.65817-9.07622,7.31634-18.15244,10.97451-27.22866.51887-1.28737,1.03775-2.57473,1.55662-3.8621.4996-1.23955-1.50881-1.77842-2.00303-.55221h0Z"/>
      <path class="cls-12" d="m53.20973,112.04766c-3.65817,9.07622-7.31634,18.15244-10.97451,27.22866-.51887,1.28737-1.03775,2.57473-1.55662,3.8621-.4996,1.23955,1.50881,1.77842,2.00303.55221,3.65817-9.07622,7.31634-18.15244,10.97451-27.22866.51887-1.28737,1.03775-2.57473,1.55662-3.8621.4996-1.23955-1.50881-1.77842-2.00303-.55221h0Z"/>
      <path class="cls-12" d="m55.21277,182.27469c-3.65817-9.07622-7.31634-18.15244-10.97451-27.22866-.51887-1.28737-1.03775-2.57473-1.55662-3.8621-.49342-1.22422-2.50349-.68948-2.00303.55221,3.65817,9.07622,7.31634,18.15244,10.97451,27.22866.51887,1.28737,1.03775,2.57473,1.55662,3.8621.49342,1.22422,2.50349.68948,2.00303-.55221h0Z"/>
    </g>
    <g>
      <path class="cls-12" d="m67.14882,211.00741c-9.72429.53599-19.44858,1.07197-29.17287,1.60796-1.62305.08946-3.28844.07982-4.90345.27027-.62444.07364.15921.09808-.25575.01988-.52978-.09984-1.06147-.19052-1.5921-.28576-5.41979-.97278-10.83958-1.94557-16.25936-2.91835-4.55019-.8167-9.10037-1.6334-13.65056-2.45011-.65417-.11742-1.31472.27788-1.31472,1.00152v78.8445c0,.72363.66055,1.11893,1.31472,1.00152,9.50935-1.70681,19.0187-3.41362,28.52805-5.12043l2.40426-.43153c.2259-.04055,1.09694-.07184.50153-.10023,1.16882.05572,2.33708.12882,3.50545.19321,5.84196.322,11.68392.644,17.52587.96599,4.45631.24562,8.91263.49125,13.36894.73687.86034.04742,1.42298-1.19762.73441-1.77303.24599.20556.22516.85054.2879.56951.02807-.12575-.01044-.30119-.01412-.43032-.01433-.50289-.01864-1.0062-.02475-1.50923-.02112-1.73683-.03081-3.47381-.04003-5.21074-.03007-5.66757-.04028-11.33527-.04743-17.00291-.01597-12.65537-.01772-25.31108.03933-37.96636.00959-2.12852.01985-4.25709.04266-6.38552.00654-.61038.01234-1.22089.02651-1.83115.00388-.16714.0402-.3678.0152-.5332-.06362-.42089.01172.26248-.28528.51067,1.0269-.85814-.44928-2.32081-1.46883-1.46883-.54357.45424-.3466,1.87695-.35488,2.48526-.02313,1.69781-.03249,3.39583-.04197,5.09376-.03184,5.70554-.04207,11.41122-.04953,17.11683-.01692,12.94479-.02,25.88998.04123,38.83467.00988,2.08816.0199,4.1764.04466,6.26445.00789.66531-.24761,2.42377.36048,2.93193l.73441-1.77303c-9.78561-.53937-19.57122-1.07873-29.35683-1.6181-1.58466-.08734-3.18444-.24734-4.77182-.26301-.74765-.00738-1.49326.1896-2.22845.32156-5.45955.97992-10.91909,1.95984-16.37864,2.93976-4.55019.8167-9.10037,1.6334-13.65056,2.45011l1.31472,1.00152v-78.8445l-1.31472,1.00152c9.56031,1.71596,19.12062,3.43191,28.68093,5.14787,1.07173.19236,2.20543.52515,3.29795.57892,1.09905.05409,2.25886-.1245,3.35566-.18496,5.89428-.32488,11.78856-.64976,17.68283-.97465,4.45631-.24562,8.91263-.49125,13.36894-.73687,1.32939-.07327,1.33794-2.15098,0-2.07723Z"/>
      <path class="cls-12" d="m31.45067,282.04185v-68.86127c0-1.3366-2.07723-1.33881-2.07723,0v68.86127c0,1.3366,2.07723,1.33881,2.07723,0h0Z"/>
      <path class="cls-12" d="m34.56785,213.85229v67.73586c0,1.3366,2.07723,1.33881,2.07723,0v-67.73586c0-1.3366-2.07723-1.33881-2.07723,0h0Z"/>
      <path class="cls-12" d="m40.61892,213.85229v67.73586c0,1.3366,2.07723,1.33881,2.07723,0v-67.73586c0-1.3366-2.07723-1.33881-2.07723,0h0Z"/>
      <path class="cls-12" d="m1.17407,222.09349c9.98297.6116,19.96594,1.22321,29.94891,1.83481,1.44181.08833,2.88362.17666,4.32543.265,1.33512.0818,1.33028-1.99573,0-2.07723-9.98297-.6116-19.96594-1.22321-29.94891-1.83481-1.44181-.08833-2.88362-.17666-4.32543-.265-1.33512-.0818-1.33028,1.99573,0,2.07723h0Z"/>
      <path class="cls-12" d="m1.17407,222.09349c9.98297.6116,19.96594,1.22321,29.94891,1.83481,1.44181.08833,2.88362.17666,4.32543.265,1.33512.0818,1.33028-1.99573,0-2.07723-9.98297-.6116-19.96594-1.22321-29.94891-1.83481-1.44181-.08833-2.88362-.17666-4.32543-.265-1.33512-.0818-1.33028,1.99573,0,2.07723h0Z"/>
      <path class="cls-12" d="m1.17407,275.26614c9.98297-.6116,19.96594-1.22321,29.94891-1.83481,1.44181-.08833,2.88362-.17666,4.32543-.265,1.32809-.08137,1.33734-2.15916,0-2.07723-9.98297.6116-19.96594,1.22321-29.94891,1.83481-1.44181.08833-2.88362.17666-4.32543.265-1.32809.08137-1.33734,2.15916,0,2.07723h0Z"/>
      <path class="cls-12" d="m12.82464,239.8177h17.97258c1.3366,0,1.33881-2.07723,0-2.07723H12.82464c-1.3366,0-1.33881,2.07723,0,2.07723h0Z"/>
      <path class="cls-12" d="m12.82464,258.01607h17.97258c1.3366,0,1.33881-2.07723,0-2.07723H12.82464c-1.3366,0-1.33881,2.07723,0,2.07723h0Z"/>
      <path class="cls-12" d="m53.20973,212.37952c-3.65817,9.07622-7.31634,18.15244-10.97451,27.22866-.51887,1.28737-1.03775,2.57473-1.55662,3.8621-.4996,1.23955,1.50881,1.77842,2.00303.55221,3.65817-9.07622,7.31634-18.15244,10.97451-27.22866.51887-1.28737,1.03775-2.57473,1.55662-3.8621.4996-1.23955-1.50881-1.77842-2.00303-.55221h0Z"/>
      <path class="cls-12" d="m53.20973,212.37952c-3.65817,9.07622-7.31634,18.15244-10.97451,27.22866-.51887,1.28737-1.03775,2.57473-1.55662,3.8621-.4996,1.23955,1.50881,1.77842,2.00303.55221,3.65817-9.07622,7.31634-18.15244,10.97451-27.22866.51887-1.28737,1.03775-2.57473,1.55662-3.8621.4996-1.23955-1.50881-1.77842-2.00303-.55221h0Z"/>
      <path class="cls-12" d="m55.21277,282.60655c-3.65817-9.07622-7.31634-18.15244-10.97451-27.22866-.51887-1.28737-1.03775-2.57473-1.55662-3.8621-.49342-1.22422-2.50349-.68948-2.00303.55221,3.65817,9.07622,7.31634,18.15244,10.97451,27.22866.51887,1.28737,1.03775,2.57473,1.55662,3.8621.49342,1.22422,2.50349.68948,2.00303-.55221h0Z"/>
    </g>
  </g>
  <rect class="cls-8" x="185.28014" y="22.43827" width="5.41887" height="249.80985"/>
  <g>
    <path class="cls-12" d="m942.12556,293.70459h-40.96077c-35.52399,0-71.04798,0-106.57197,0-49.9747,0-99.94939,0-149.92409,0H172.87608c-29.19456,0-58.38912,0-87.58368,0-5.79583,0-12.05965-.6728-17.82729,0-1.61442.18832-.95858.34494-.98622-.52818-.13226-4.17782,0-8.38165,0-12.5609,0-46.90227,0-93.80453,0-140.7068s0-88.04266,0-132.06398V2.42255c0-.78091.36353-1.91304-.3389-1.44075.50235-.33776,2.3785,0,2.96441,0,7.08141,0,14.16282,0,21.24423,0,30.95669,0,61.91339,0,92.87008,0,47.25374,0,94.50748,0,141.76122,0,55.33747,0,110.67494,0,166.01241,0h168.61417c48.76733,0,97.53465,0,146.30198,0,33.92361,0,67.84723,0,101.77084,0h27.05894c2.04222,0,4.17146.17176,6.20828,0,1.48843-.12552.91128-.46275.83544.75675-.79164,12.73005,0,25.76902,0,38.51633,0,24.55491,0,49.10982,0,73.66472,0,51.07252,0,102.14505,0,153.21757v26.91097c0,.44214.68713.44287.68713,0V.63824c0-.18573-.15741-.34357-.34357-.34357H101.69426c-11.33761,0-22.73547-.34114-34.06945,0-.49553.01491-.9936,0-1.48949,0-.18573,0-.34357.15741-.34357.34357v293.40991c0,.18573.15741.34357.34357.34357h840.4313c11.33761,0,22.73547.34114,34.06945,0,.49553-.01491.9936,0,1.48949,0,.44214,0,.44287-.68713,0-.68713Z"/>
    <path class="cls-12" d="m940.1648,290.99412h-146.20058c-49.4213,0-98.84259,0-148.26389,0-55.61576,0-111.23152,0-166.84728,0-54.75256,0-109.50512,0-164.25768,0-45.94908,0-91.89817,0-137.84725,0-29.48187,0-58.96374,0-88.4456,0-6.10311,0-12.3758-.41657-18.46854,0-.35148.02403-1.14063.13938-1.47802,0-.60395-.24949.35022.76246.07891-.07985-.3223-1.00061,0-2.64192,0-3.68084v-7.1554c0-45.98641,0-91.97282,0-137.95923s0-87.66531,0-131.49796v-5.46706c0-.77019.36175-1.93051-.33413-1.46149.48886-.32949,2.39253,0,2.95114,0,6.94599,0,13.89198,0,20.83798,0,30.71653,0,61.43306,0,92.14959,0h140.1364c55.04399,0,110.08798,0,165.13198,0h166.31312c48.77192,0,97.54384,0,146.31576,0,34.15186,0,68.30372,0,102.45559,0h27.50147c2.201,0,4.5114.19894,6.70542,0,.28939-.02624,1.09433-.13367,1.37027,0,.34482.16704-.3488-.73787-.14341.24433.72685,3.47584,0,7.87482,0,11.41262,0,8.07121,0,16.14243,0,24.21364,0,24.13284,0,48.26568,0,72.39852,0,50.75413,0,101.50826,0,152.2624,0,9.03637,0,18.07275,0,27.10912,0,.43598.67756.4367.67756,0V3.35349c0-.18314-.15522-.33878-.33878-.33878H103.49584c-11.28711,0-22.63339-.33735-33.91693,0-.49332.01475-.98915,0-1.48282,0-.18314,0-.33878.15522-.33878.33878v287.97941c0,.18314.15522.33878.33878.33878h836.66896c11.28711,0,22.63339.33735,33.91693,0,.49332-.01475.98915,0,1.48282,0,.43598,0,.4367-.67756,0-.67756Z"/>
    <path class="cls-12" d="m932.59722,281.65158h-413.04493c-41.62539,0-83.25077,0-124.87616,0H88.58101c-3.72803,0-7.7515-.43057-11.46025,0-.47193.05479-.98003,0-1.45709,0l1.7678,1.7678V11.26701l-1.7678,1.7678h537.92109c38.54717,0,77.09433,0,115.6415,0h98.07416c23.50381,0,47.00762,0,70.51142,0h21.86804c3.72803,0,7.7515.43057,11.46025,0,.47193-.05479.98003,0,1.45709,0l-1.7678-1.7678v272.15237c0,2.27499,3.5356,2.27876,3.5356,0V11.26701c0-.95564-.80994-1.7678-1.7678-1.7678h-85.31579c-30.75826,0-61.51653,0-92.27479,0h-360.3305c-38.54717,0-77.09433,0-115.6415,0H110.44904c-11.10477,0-22.22442-.16783-33.32829,0-.48546.00734-.97154,0-1.45709,0-.95564,0-1.7678.80994-1.7678,1.7678v272.15237c0,.95564.80994,1.7678,1.7678,1.7678h537.92109c38.54717,0,77.09433,0,115.6415,0h168.58559c11.10477,0,22.22442.16783,33.32829,0,.48546-.00734.97154,0,1.45709,0,2.27499,0,2.27876-3.5356,0-3.5356Z"/>
    <path class="cls-12" d="m922.4166,271.9074h-403.23075c-40.63634,0-81.27268,0-121.90903,0H98.4547c-3.61337,0-7.59887-.47538-11.18795,0-.45681.06051-.95919,0-1.42247,0l1.06813,1.06813V21.71086l-1.06813,1.06813h403.23075c40.63634,0,81.27268,0,121.90903,0h298.82213c3.61337,0,7.59887.47538,11.18795,0,.45681-.06051.95919,0,1.42247,0l-1.06813-1.06813v251.26467c0,1.37459,2.13627,1.37686,2.13627,0V21.71086c0-.57741-.48938-1.06813-1.06813-1.06813H119.80314c-10.84285,0-21.69404-.12423-32.53639,0-.47402.00543-.9484,0-1.42247,0-.57741,0-1.06813.48938-1.06813,1.06813v251.26467c0,.57741.48938,1.06813,1.06813,1.06813h525.13977c37.63126,0,75.26253,0,112.89379,0h164.5799c10.84285,0,21.69404.12423,32.53639,0,.47402-.00543.9484,0,1.42247,0,1.37459,0,1.37686-2.13627,0-2.13627Z"/>
    <g>
      <g>
        <rect class="cls-2" x="757.39829" y="10.89464" width="176.7796" height="9.17343"/>
        <rect class="cls-10" x="739.91145" y="7.07238" width="17.48685" height="3.82226"/>
        <rect class="cls-4" x="757.39829" y="7.07238" width="174.10626" height="3.82226"/>
        <rect class="cls-9" x="757.39829" y=".63824" width="173.96068" height="6.43414"/>
        <polyline class="cls-3" points="763.75245 10.16239 760.82205 7.23199 757.89165 10.16239"/>
        <polyline class="cls-3" points="769.16732 10.16239 766.23692 7.23199 763.30652 10.16239"/>
        <polyline class="cls-3" points="774.58219 10.16239 771.65179 7.23199 768.72139 10.16239"/>
        <polyline class="cls-3" points="779.99706 10.16239 777.06666 7.23199 774.13626 10.16239"/>
        <polyline class="cls-3" points="785.41193 10.16239 782.48153 7.23199 779.55114 10.16239"/>
        <polyline class="cls-3" points="790.82681 10.16239 787.89641 7.23199 784.96601 10.16239"/>
        <polyline class="cls-3" points="796.24168 10.16239 793.31128 7.23199 790.38088 10.16239"/>
        <polyline class="cls-3" points="801.65655 10.16239 798.72615 7.23199 795.79575 10.16239"/>
        <polyline class="cls-3" points="807.07142 10.16239 804.14102 7.23199 801.21062 10.16239"/>
        <polyline class="cls-3" points="812.48629 10.16239 809.55589 7.23199 806.62549 10.16239"/>
        <polyline class="cls-3" points="817.90116 10.16239 814.97076 7.23199 812.04036 10.16239"/>
        <polyline class="cls-3" points="823.31603 10.16239 820.38563 7.23199 817.45523 10.16239"/>
        <polyline class="cls-3" points="828.7309 10.16239 825.8005 7.23199 822.8701 10.16239"/>
        <polyline class="cls-3" points="834.14577 10.16239 831.21537 7.23199 828.28497 10.16239"/>
        <polyline class="cls-3" points="839.56064 10.16239 836.63024 7.23199 833.69984 10.16239"/>
        <polyline class="cls-3" points="844.97551 10.16239 842.04511 7.23199 839.11471 10.16239"/>
        <polyline class="cls-3" points="850.39038 10.16239 847.45998 7.23199 844.52958 10.16239"/>
        <polyline class="cls-3" points="855.80525 10.16239 852.87485 7.23199 849.94445 10.16239"/>
        <polyline class="cls-3" points="861.22012 10.16239 858.28972 7.23199 855.35932 10.16239"/>
        <polyline class="cls-3" points="866.63499 10.16239 863.70459 7.23199 860.77419 10.16239"/>
        <polyline class="cls-3" points="872.04986 10.16239 869.11946 7.23199 866.18906 10.16239"/>
        <polyline class="cls-3" points="877.46473 10.16239 874.53433 7.23199 871.60393 10.16239"/>
        <polyline class="cls-3" points="882.8796 10.16239 879.9492 7.23199 877.0188 10.16239"/>
        <polyline class="cls-3" points="888.29447 10.16239 885.36407 7.23199 882.43367 10.16239"/>
        <polyline class="cls-3" points="893.70934 10.16239 890.77894 7.23199 887.84855 10.16239"/>
        <polyline class="cls-3" points="899.12422 10.16239 896.19382 7.23199 893.26342 10.16239"/>
        <polyline class="cls-3" points="904.53909 10.16239 901.60869 7.23199 898.67829 10.16239"/>
        <polyline class="cls-3" points="909.95396 10.16239 907.02356 7.23199 904.09316 10.16239"/>
        <polyline class="cls-3" points="915.36883 10.16239 912.43843 7.23199 909.50803 10.16239"/>
        <polyline class="cls-3" points="920.7837 10.16239 917.8533 7.23199 914.9229 10.16239"/>
        <polyline class="cls-3" points="926.19857 10.16239 923.26817 7.23199 920.33777 10.16239"/>
        <polyline class="cls-3" points="931.61344 10.16239 928.68304 7.23199 925.75264 10.16239"/>
        <rect class="cls-5" x="810.09772" y="10.95835" width="4.44338" height="9.20528"/>
        <rect class="cls-1" x="758.4733" y="4.08624" width="8.12231" height="2.98614"/>
        <rect class="cls-1" x="762.55834" y="1.07621" width="8.12231" height="2.98614"/>
        <rect class="cls-1" x="766.6195" y="4.08624" width="8.12231" height="2.98614"/>
        <rect class="cls-1" x="770.70454" y="1.07621" width="8.12231" height="2.98614"/>
        <rect class="cls-1" x="774.76569" y="4.08624" width="8.12231" height="2.98614"/>
        <rect class="cls-1" x="778.85073" y="1.07621" width="8.12231" height="2.98614"/>
        <rect class="cls-1" x="782.91189" y="4.08624" width="8.12231" height="2.98614"/>
        <rect class="cls-1" x="786.99693" y="1.07621" width="8.12231" height="2.98614"/>
        <rect class="cls-1" x="791.05808" y="4.08624" width="8.12231" height="2.98614"/>
        <rect class="cls-1" x="795.14312" y="1.07621" width="8.12231" height="2.98614"/>
        <rect class="cls-1" x="799.20428" y="4.08624" width="8.12231" height="2.98614"/>
        <rect class="cls-1" x="803.28932" y="1.07621" width="8.12231" height="2.98614"/>
        <rect class="cls-1" x="807.35047" y="4.08624" width="8.12231" height="2.98614"/>
        <rect class="cls-1" x="811.43551" y="1.07621" width="8.12231" height="2.98614"/>
        <rect class="cls-1" x="815.49667" y="4.08624" width="8.12231" height="2.98614"/>
        <rect class="cls-1" x="819.58171" y="1.07621" width="8.12231" height="2.98614"/>
        <rect class="cls-1" x="823.64286" y="4.08624" width="8.12231" height="2.98614"/>
        <rect class="cls-1" x="827.7279" y="1.07621" width="8.12231" height="2.98614"/>
        <rect class="cls-1" x="831.78906" y="4.08624" width="8.12231" height="2.98614"/>
        <rect class="cls-1" x="835.8741" y="1.07621" width="8.12231" height="2.98614"/>
        <rect class="cls-1" x="839.93525" y="4.08624" width="8.12231" height="2.98614"/>
        <rect class="cls-1" x="844.02029" y="1.07621" width="8.12231" height="2.98614"/>
        <rect class="cls-1" x="848.08145" y="4.08624" width="8.12231" height="2.98614"/>
        <rect class="cls-1" x="852.16649" y="1.07621" width="8.12231" height="2.98614"/>
        <rect class="cls-1" x="856.22764" y="4.08624" width="8.12231" height="2.98614"/>
        <rect class="cls-1" x="860.31268" y="1.07621" width="8.12231" height="2.98614"/>
        <rect class="cls-1" x="864.37384" y="4.08624" width="8.12231" height="2.98614"/>
        <rect class="cls-1" x="868.45888" y="1.07621" width="8.12231" height="2.98614"/>
        <rect class="cls-1" x="872.52003" y="4.08624" width="8.12231" height="2.98614"/>
        <rect class="cls-1" x="876.60507" y="1.07621" width="8.12231" height="2.98614"/>
        <rect class="cls-1" x="880.66623" y="4.08624" width="8.12231" height="2.98614"/>
        <rect class="cls-1" x="884.75127" y="1.07621" width="8.12231" height="2.98614"/>
        <rect class="cls-1" x="888.81242" y="4.08624" width="8.12231" height="2.98614"/>
        <rect class="cls-1" x="892.89746" y="1.07621" width="8.12231" height="2.98614"/>
        <rect class="cls-1" x="896.95862" y="4.08624" width="8.12231" height="2.98614"/>
        <rect class="cls-1" x="901.04366" y="1.07621" width="8.12231" height="2.98614"/>
        <rect class="cls-1" x="905.10481" y="4.08624" width="8.12231" height="2.98614"/>
        <rect class="cls-1" x="909.18985" y="1.07621" width="8.12231" height="2.98614"/>
        <rect class="cls-1" x="913.25101" y="4.08624" width="8.12231" height="2.98614"/>
        <rect class="cls-1" x="917.33605" y="1.07621" width="8.12231" height="2.98614"/>
        <rect class="cls-1" x="921.3972" y="4.08624" width="8.12231" height="2.98614"/>
        <rect class="cls-6" x="925.48224" y="1.07621" width="5.82895" height="2.98614"/>
      </g>
      <g>
        <rect class="cls-2" x="757.39829" y="274.61832" width="176.7796" height="9.17343"/>
        <rect class="cls-10" x="739.91145" y="283.79175" width="17.48685" height="3.82226"/>
        <rect class="cls-4" x="757.39829" y="283.79175" width="174.10626" height="3.82226"/>
        <rect class="cls-9" x="757.39829" y="287.61401" width="173.96068" height="6.43414"/>
        <polyline class="cls-3" points="763.75245 284.524 760.82205 287.4544 757.89165 284.524"/>
        <polyline class="cls-3" points="769.16732 284.524 766.23692 287.4544 763.30652 284.524"/>
        <polyline class="cls-3" points="774.58219 284.524 771.65179 287.4544 768.72139 284.524"/>
        <polyline class="cls-3" points="779.99706 284.524 777.06666 287.4544 774.13626 284.524"/>
        <polyline class="cls-3" points="785.41193 284.524 782.48153 287.4544 779.55114 284.524"/>
        <polyline class="cls-3" points="790.82681 284.524 787.89641 287.4544 784.96601 284.524"/>
        <polyline class="cls-3" points="796.24168 284.524 793.31128 287.4544 790.38088 284.524"/>
        <polyline class="cls-3" points="801.65655 284.524 798.72615 287.4544 795.79575 284.524"/>
        <polyline class="cls-3" points="807.07142 284.524 804.14102 287.4544 801.21062 284.524"/>
        <polyline class="cls-3" points="812.48629 284.524 809.55589 287.4544 806.62549 284.524"/>
        <polyline class="cls-3" points="817.90116 284.524 814.97076 287.4544 812.04036 284.524"/>
        <polyline class="cls-3" points="823.31603 284.524 820.38563 287.4544 817.45523 284.524"/>
        <polyline class="cls-3" points="828.7309 284.524 825.8005 287.4544 822.8701 284.524"/>
        <polyline class="cls-3" points="834.14577 284.524 831.21537 287.4544 828.28497 284.524"/>
        <polyline class="cls-3" points="839.56064 284.524 836.63024 287.4544 833.69984 284.524"/>
        <polyline class="cls-3" points="844.97551 284.524 842.04511 287.4544 839.11471 284.524"/>
        <polyline class="cls-3" points="850.39038 284.524 847.45998 287.4544 844.52958 284.524"/>
        <polyline class="cls-3" points="855.80525 284.524 852.87485 287.4544 849.94445 284.524"/>
        <polyline class="cls-3" points="861.22012 284.524 858.28972 287.4544 855.35932 284.524"/>
        <polyline class="cls-3" points="866.63499 284.524 863.70459 287.4544 860.77419 284.524"/>
        <polyline class="cls-3" points="872.04986 284.524 869.11946 287.4544 866.18906 284.524"/>
        <polyline class="cls-3" points="877.46473 284.524 874.53433 287.4544 871.60393 284.524"/>
        <polyline class="cls-3" points="882.8796 284.524 879.9492 287.4544 877.0188 284.524"/>
        <polyline class="cls-3" points="888.29447 284.524 885.36407 287.4544 882.43367 284.524"/>
        <polyline class="cls-3" points="893.70934 284.524 890.77894 287.4544 887.84855 284.524"/>
        <polyline class="cls-3" points="899.12422 284.524 896.19382 287.4544 893.26342 284.524"/>
        <polyline class="cls-3" points="904.53909 284.524 901.60869 287.4544 898.67829 284.524"/>
        <polyline class="cls-3" points="909.95396 284.524 907.02356 287.4544 904.09316 284.524"/>
        <polyline class="cls-3" points="915.36883 284.524 912.43843 287.4544 909.50803 284.524"/>
        <polyline class="cls-3" points="920.7837 284.524 917.8533 287.4544 914.9229 284.524"/>
        <polyline class="cls-3" points="926.19857 284.524 923.26817 287.4544 920.33777 284.524"/>
        <polyline class="cls-3" points="931.61344 284.524 928.68304 287.4544 925.75264 284.524"/>
        <rect class="cls-5" x="810.09772" y="274.52277" width="4.44338" height="9.20528"/>
        <rect class="cls-1" x="758.4733" y="287.61401" width="8.12231" height="2.98614"/>
        <rect class="cls-1" x="762.55834" y="290.62405" width="8.12231" height="2.98614"/>
        <rect class="cls-1" x="766.6195" y="287.61401" width="8.12231" height="2.98614"/>
        <rect class="cls-1" x="770.70454" y="290.62405" width="8.12231" height="2.98614"/>
        <rect class="cls-1" x="774.76569" y="287.61401" width="8.12231" height="2.98614"/>
        <rect class="cls-1" x="778.85073" y="290.62405" width="8.12231" height="2.98614"/>
        <rect class="cls-1" x="782.91189" y="287.61401" width="8.12231" height="2.98614"/>
        <rect class="cls-1" x="786.99693" y="290.62405" width="8.12231" height="2.98614"/>
        <rect class="cls-1" x="791.05808" y="287.61401" width="8.12231" height="2.98614"/>
        <rect class="cls-1" x="795.14312" y="290.62405" width="8.12231" height="2.98614"/>
        <rect class="cls-1" x="799.20428" y="287.61401" width="8.12231" height="2.98614"/>
        <rect class="cls-1" x="803.28932" y="290.62405" width="8.12231" height="2.98614"/>
        <rect class="cls-1" x="807.35047" y="287.61401" width="8.12231" height="2.98614"/>
        <rect class="cls-1" x="811.43551" y="290.62405" width="8.12231" height="2.98614"/>
        <rect class="cls-1" x="815.49667" y="287.61401" width="8.12231" height="2.98614"/>
        <rect class="cls-1" x="819.58171" y="290.62405" width="8.12231" height="2.98614"/>
        <rect class="cls-1" x="823.64286" y="287.61401" width="8.12231" height="2.98614"/>
        <rect class="cls-1" x="827.7279" y="290.62405" width="8.12231" height="2.98614"/>
        <rect class="cls-1" x="831.78906" y="287.61401" width="8.12231" height="2.98614"/>
        <rect class="cls-1" x="835.8741" y="290.62405" width="8.12231" height="2.98614"/>
        <rect class="cls-1" x="839.93525" y="287.61401" width="8.12231" height="2.98614"/>
        <rect class="cls-1" x="844.02029" y="290.62405" width="8.12231" height="2.98614"/>
        <rect class="cls-1" x="848.08145" y="287.61401" width="8.12231" height="2.98614"/>
        <rect class="cls-1" x="852.16649" y="290.62405" width="8.12231" height="2.98614"/>
        <rect class="cls-1" x="856.22764" y="287.61401" width="8.12231" height="2.98614"/>
        <rect class="cls-1" x="860.31268" y="290.62405" width="8.12231" height="2.98614"/>
        <rect class="cls-1" x="864.37384" y="287.61401" width="8.12231" height="2.98614"/>
        <rect class="cls-1" x="868.45888" y="290.62405" width="8.12231" height="2.98614"/>
        <rect class="cls-1" x="872.52003" y="287.61401" width="8.12231" height="2.98614"/>
        <rect class="cls-1" x="876.60507" y="290.62405" width="8.12231" height="2.98614"/>
        <rect class="cls-1" x="880.66623" y="287.61401" width="8.12231" height="2.98614"/>
        <rect class="cls-1" x="884.75127" y="290.62405" width="8.12231" height="2.98614"/>
        <rect class="cls-1" x="888.81242" y="287.61401" width="8.12231" height="2.98614"/>
        <rect class="cls-1" x="892.89746" y="290.62405" width="8.12231" height="2.98614"/>
        <rect class="cls-1" x="896.95862" y="287.61401" width="8.12231" height="2.98614"/>
        <rect class="cls-1" x="901.04366" y="290.62405" width="8.12231" height="2.98614"/>
        <rect class="cls-1" x="905.10481" y="287.61401" width="8.12231" height="2.98614"/>
        <rect class="cls-1" x="909.18985" y="290.62405" width="8.12231" height="2.98614"/>
        <rect class="cls-1" x="913.25101" y="287.61401" width="8.12231" height="2.98614"/>
        <rect class="cls-1" x="917.33605" y="290.62405" width="8.12231" height="2.98614"/>
        <rect class="cls-1" x="921.3972" y="287.61401" width="8.12231" height="2.98614"/>
        <rect class="cls-6" x="925.48224" y="290.62405" width="5.82895" height="2.98614"/>
      </g>
    </g>
    <rect class="cls-8" x="296.14116" y="22.43827" width="5.41887" height="249.80985"/>
    <rect class="cls-7" x="386.22985" y="74.3691" width="36.84831" height="36.84831"/>
    <rect class="cls-7" x="762.98844" y="183.46899" width="36.84831" height="36.84831"/>
    <text class="cls-11" transform="translate(308.85414 144.32819)"><tspan x="0" y="0">溫溼度感測器1</tspan></text>
    <text class="cls-11" transform="translate(685.51176 169.5456)"><tspan x="0" y="0">溫溼度感測器2</tspan></text>
  </g>
</svg>