<?xml version="1.0" encoding="UTF-8"?>
<svg id="_圖層_1" data-name="圖層 1" xmlns="http://www.w3.org/2000/svg" xmlns:xlink="http://www.w3.org/1999/xlink" viewBox="0 0 1005.25388 437.105">
  <defs>
    <style>
      .cls-1 {
        fill: url(#_未命名漸層_10-3);
      }

      .cls-2 {
        fill: url(#_未命名漸層_10);
      }

      .cls-3 {
        fill: url(#_未命名漸層_10-2);
      }

      .cls-4 {
        fill: none;
      }
    </style>
    <linearGradient id="_未命名漸層_10" data-name="未命名漸層 10" x1="1719.97965" y1="3250.18536" x2="1709.12131" y2="3484.41526" gradientTransform="translate(-2812.68807 -1027.29024) rotate(-45)" gradientUnits="userSpaceOnUse">
      <stop offset="0" stop-color="#fff" stop-opacity="0"/>
      <stop offset="1" stop-color="#fff"/>
    </linearGradient>
    <linearGradient id="_未命名漸層_10-2" data-name="未命名漸層 10" x1="1648.11932" y1="3322.04569" x2="1637.26098" y2="3556.27558" xlink:href="#_未命名漸層_10"/>
    <linearGradient id="_未命名漸層_10-3" data-name="未命名漸層 10" x1="1576.25899" y1="3393.90602" x2="1565.40065" y2="3628.13591" xlink:href="#_未命名漸層_10"/>
  </defs>
  <g>
    <path class="cls-2" d="m995.69113,165.15859l-200.93694,67.95316c-2.92369.98874-6.09137.98874-9.01506,0l-200.93694-67.95316c-12.75034-4.31193-12.75034-22.34553,0-26.65746l200.93694-67.95316c2.92369-.98874,6.09137-.98874,9.01506,0l200.93694,67.95316c12.75034,4.31193,12.75034,22.34553,0,26.65746Z"/>
    <path class="cls-3" d="m995.69113,266.78444l-200.93694,67.95316c-2.92369.98874-6.09137.98874-9.01506,0l-200.93694-67.95316c-12.75034-4.31193-12.75034-22.34553,0-26.65746l200.93694-67.95316c2.92369-.98874,6.09137-.98874,9.01506,0l200.93694,67.95316c12.75034,4.31193,12.75034,22.34553,0,26.65746Z"/>
    <path class="cls-1" d="m995.69113,368.41029l-200.93694,67.95316c-2.92369.98874-6.09137.98874-9.01506,0l-200.93694-67.95316c-12.75034-4.31193-12.75034-22.34553,0-26.65746l200.93694-67.95316c2.92369-.98874,6.09137-.98874,9.01506,0l200.93694,67.95316c12.75034,4.31193,12.75034,22.34553,0,26.65746Z"/>
  </g>
  <circle class="cls-4" cx="10.95652" cy="10.95652" r="10.95652"/>
</svg>