<?xml version="1.0" encoding="UTF-8"?>
<svg id="_圖層_1" data-name="圖層 1" xmlns="http://www.w3.org/2000/svg" xmlns:xlink="http://www.w3.org/1999/xlink" viewBox="0 0 666.50318 631.38089">
  <defs>
    <style>
      .cls-1 {
        fill: url(#_未命名漸層_10-15);
      }

      .cls-2 {
        fill: url(#_未命名漸層_10-9);
      }

      .cls-3 {
        fill: url(#_未命名漸層_10-13);
      }

      .cls-4 {
        fill: url(#_未命名漸層_10-3);
      }

      .cls-5 {
        fill: url(#_未命名漸層_10);
      }

      .cls-6 {
        fill: url(#_未命名漸層_10-12);
      }

      .cls-7 {
        fill: url(#_未命名漸層_10-7);
      }

      .cls-8 {
        fill: url(#_未命名漸層_10-2);
      }

      .cls-9 {
        fill: url(#_未命名漸層_10-11);
      }

      .cls-10 {
        fill: url(#_未命名漸層_10-8);
      }

      .cls-11 {
        fill: url(#_未命名漸層_10-18);
      }

      .cls-12 {
        fill: url(#_未命名漸層_10-19);
      }

      .cls-13 {
        fill: url(#_未命名漸層_10-5);
      }

      .cls-14 {
        fill: url(#_未命名漸層_10-6);
      }

      .cls-15 {
        fill: url(#_未命名漸層_10-16);
      }

      .cls-16 {
        fill: none;
      }

      .cls-17 {
        fill: url(#_未命名漸層_10-17);
      }

      .cls-18 {
        fill: url(#_未命名漸層_10-4);
      }

      .cls-19 {
        fill: url(#_未命名漸層_10-10);
      }

      .cls-20 {
        fill: url(#_未命名漸層_10-14);
      }
    </style>
    <linearGradient id="_未命名漸層_10" data-name="未命名漸層 10" x1="17.80412" y1="352.27689" x2="12.47368" y2="467.2621" gradientUnits="userSpaceOnUse">
      <stop offset="0" stop-color="#fff" stop-opacity="0"/>
      <stop offset="1" stop-color="#fff"/>
    </linearGradient>
    <linearGradient id="_未命名漸層_10-2" data-name="未命名漸層 10" x1="52.88885" y1="353.90333" x2="47.55841" y2="468.88854" xlink:href="#_未命名漸層_10"/>
    <linearGradient id="_未命名漸層_10-3" data-name="未命名漸層 10" x1="87.97358" y1="355.52977" x2="82.64314" y2="470.51499" xlink:href="#_未命名漸層_10"/>
    <linearGradient id="_未命名漸層_10-4" data-name="未命名漸層 10" x1="124.54034" y1="357.22492" x2="119.2099" y2="472.21014" xlink:href="#_未命名漸層_10"/>
    <linearGradient id="_未命名漸層_10-5" data-name="未命名漸層 10" x1="161.39866" y1="358.93359" x2="156.06822" y2="473.9188" xlink:href="#_未命名漸層_10"/>
    <linearGradient id="_未命名漸層_10-6" data-name="未命名漸層 10" x1="198.25697" y1="360.64225" x2="192.92653" y2="475.62746" xlink:href="#_未命名漸層_10"/>
    <linearGradient id="_未命名漸層_10-7" data-name="未命名漸層 10" x1="235.11529" y1="362.35091" x2="229.78485" y2="477.33613" xlink:href="#_未命名漸層_10"/>
    <linearGradient id="_未命名漸層_10-8" data-name="未命名漸層 10" x1="269.58048" y1="363.94864" x2="264.25003" y2="478.93385" xlink:href="#_未命名漸層_10"/>
    <linearGradient id="_未命名漸層_10-9" data-name="未命名漸層 10" x1="304.04566" y1="365.54636" x2="298.71522" y2="480.53157" xlink:href="#_未命名漸層_10"/>
    <linearGradient id="_未命名漸層_10-10" data-name="未命名漸層 10" x1="338.51085" y1="367.14409" x2="333.18041" y2="482.1293" xlink:href="#_未命名漸層_10"/>
    <linearGradient id="_未命名漸層_10-11" data-name="未命名漸層 10" x1="372.97604" y1="368.74181" x2="367.6456" y2="483.72702" xlink:href="#_未命名漸層_10"/>
    <linearGradient id="_未命名漸層_10-12" data-name="未命名漸層 10" x1="407.44123" y1="370.33953" x2="402.11079" y2="485.32475" xlink:href="#_未命名漸層_10"/>
    <linearGradient id="_未命名漸層_10-13" data-name="未命名漸層 10" x1="441.90642" y1="371.93726" x2="436.57598" y2="486.92247" xlink:href="#_未命名漸層_10"/>
    <linearGradient id="_未命名漸層_10-14" data-name="未命名漸層 10" x1="476.3716" y1="373.53498" x2="471.04116" y2="488.52019" xlink:href="#_未命名漸層_10"/>
    <linearGradient id="_未命名漸層_10-15" data-name="未命名漸層 10" x1="510.83679" y1="375.13271" x2="505.50635" y2="490.11792" xlink:href="#_未命名漸層_10"/>
    <linearGradient id="_未命名漸層_10-16" data-name="未命名漸層 10" x1="545.30198" y1="376.73043" x2="539.97154" y2="491.71564" xlink:href="#_未命名漸層_10"/>
    <linearGradient id="_未命名漸層_10-17" data-name="未命名漸層 10" x1="579.76717" y1="378.32815" x2="574.43673" y2="493.31337" xlink:href="#_未命名漸層_10"/>
    <linearGradient id="_未命名漸層_10-18" data-name="未命名漸層 10" x1="616.34608" y1="380.02386" x2="611.01564" y2="495.00908" xlink:href="#_未命名漸層_10"/>
    <linearGradient id="_未命名漸層_10-19" data-name="未命名漸層 10" x1="652.925" y1="381.71958" x2="647.59456" y2="496.70479" xlink:href="#_未命名漸層_10"/>
  </defs>
  <g>
    <path class="cls-5" d="m19.20342,397.3465v-58.61102h-9.55255v58.61102H0v66.17776h9.65086v58.61102h9.55255v-58.61102h9.15834v-66.17776h-9.15834Zm-5.02254,40.34349c-4.00653,0-7.25412-3.24808-7.25412-7.25461s3.24759-7.25461,7.25412-7.25461c4.00702,0,7.2551,3.24808,7.2551,7.25461s-3.24808,7.25461-7.2551,7.25461Z"/>
    <path class="cls-8" d="m54.65572,378.96383v-46.53097h-9.55255v46.53097h-9.65086v90.33784h9.65086v46.53097h9.55255v-46.53097h9.15834v-90.33784h-9.15834Zm-5.02254,52.42354c-4.00653,0-7.25412-3.24808-7.25412-7.25461s3.24759-7.25461,7.25412-7.25461c4.00702,0,7.2551,3.24808,7.2551,7.25461s-3.24808,7.25461-7.2551,7.25461Z"/>
    <path class="cls-4" d="m90.10802,384.74124v-58.61102h-9.55255v58.61102h-9.65086v66.17776h9.65086v58.61102h9.55255v-58.61102h9.15834v-66.17776h-9.15834Zm-5.02254,40.34349c-4.00653,0-7.25412-3.24808-7.25412-7.25461s3.24759-7.25461,7.25412-7.25461c4.00702,0,7.2551,3.24808,7.2551,7.25461s-3.24808,7.25461-7.2551,7.25461Z"/>
    <path class="cls-18" d="m125.56032,390.34358v-38.47761h-9.55255v38.47761h-9.65086v106.44457h9.65086v38.47761h9.55255v-38.47761h9.15834v-106.44457h-9.15834Zm-5.02254,60.4769c-4.00653,0-7.25412-3.24808-7.25412-7.25461s3.24759-7.25461,7.25412-7.25461c4.00702,0,7.2551,3.24808,7.2551,7.25461s-3.24808,7.25461-7.2551,7.25461Z"/>
    <path class="cls-13" d="m161.01262,454.5954v-70.69106h-9.55255v70.69106h-9.65086v42.01767h9.65086v70.69106h9.55255v-70.69106h9.15834v-42.01767h-9.15834Zm-5.02254,28.26345c-4.00653,0-7.25412-3.24808-7.25412-7.25461s3.24759-7.25461,7.25412-7.25461c4.00702,0,7.2551,3.24808,7.2551,7.25461s-3.24808,7.25461-7.2551,7.25461Z"/>
    <path class="cls-14" d="m196.46492,474.55374v-58.61102h-9.55255v58.61102h-9.65086v66.17776h9.65086v58.61102h9.55255v-58.61102h9.15834v-66.17776h-9.15834Zm-5.02254,40.34349c-4.00653,0-7.25412-3.24808-7.25412-7.25461s3.24759-7.25461,7.25412-7.25461c4.00702,0,7.2551,3.24808,7.2551,7.25461s-3.24808,7.25461-7.2551,7.25461Z"/>
    <path class="cls-7" d="m231.91722,494.51207v-46.53097h-9.55255v46.53097h-9.65086v90.33784h9.65086v46.53097h9.55255v-46.53097h9.15834v-90.33784h-9.15834Zm-5.02254,52.42354c-4.00653,0-7.25412-3.24808-7.25412-7.25461s3.24759-7.25461,7.25412-7.25461c4.00702,0,7.2551,3.24808,7.2551,7.25461s-3.24808,7.25461-7.2551,7.25461Z"/>
    <path class="cls-10" d="m267.36953,503.00311v-74.71774h-9.55255v74.71774h-9.65086v33.96431h9.65086v74.71774h9.55255v-74.71774h9.15834v-33.96431h-9.15834Zm-5.02254,24.23677c-4.00653,0-7.25412-3.24808-7.25412-7.25461s3.24759-7.25461,7.25412-7.25461c4.00702,0,7.2551,3.24808,7.2551,7.25461s-3.24808,7.25461-7.2551,7.25461Z"/>
    <path class="cls-2" d="m302.82183,479.28071v-70.69106h-9.55255v70.69106h-9.65086v42.01767h9.65086v70.69106h9.55255v-70.69106h9.15834v-42.01767h-9.15834Zm-5.02254,28.26345c-4.00653,0-7.25412-3.24808-7.25412-7.25461s3.24759-7.25461,7.25412-7.25461c4.00702,0,7.2551,3.24808,7.2551,7.25461s-3.24808,7.25461-7.2551,7.25461Z"/>
    <path class="cls-19" d="m338.27413,443.47826v-54.58434h-9.55255v54.58434h-9.65086v74.23112h9.65086v54.58434h9.55255v-54.58434h9.15834v-74.23112h-9.15834Zm-5.02254,44.37017c-4.00653,0-7.25412-3.24808-7.25412-7.25461s3.24759-7.25461,7.25412-7.25461c4.00702,0,7.2551,3.24808,7.2551,7.25461s-3.24808,7.25461-7.2551,7.25461Z"/>
    <path class="cls-9" d="m373.72643,403.64913v-34.45093h-9.55255v34.45093h-9.65086v114.49793h9.65086v34.45093h9.55255v-34.45093h9.15834v-114.49793h-9.15834Zm-5.02254,64.50358c-4.00653,0-7.25412-3.24808-7.25412-7.25461s3.24759-7.25461,7.25412-7.25461c4.00702,0,7.2551,3.24808,7.2551,7.25461s-3.24808,7.25461-7.2551,7.25461Z"/>
    <path class="cls-6" d="m409.17873,392.00677v-42.50429h-9.55255v42.50429h-9.65086v98.39121h9.65086v42.50429h9.55255v-42.50429h9.15834v-98.39121h-9.15834Zm-5.02254,56.45022c-4.00653,0-7.25412-3.24808-7.25412-7.25461s3.24759-7.25461,7.25412-7.25461c4.00702,0,7.2551,3.24808,7.2551,7.25461s-3.24808,7.25461-7.2551,7.25461Z"/>
    <path class="cls-3" d="m444.63103,388.41777v-58.61102h-9.55255v58.61102h-9.65086v66.17776h9.65086v58.61102h9.55255v-58.61102h9.15834v-66.17776h-9.15834Zm-5.02254,40.34349c-4.00653,0-7.25412-3.24808-7.25412-7.25461s3.24759-7.25461,7.25412-7.25461c4.00702,0,7.2551,3.24808,7.2551,7.25461s-3.24808,7.25461-7.2551,7.25461Z"/>
    <path class="cls-20" d="m480.08334,380.80209v-70.69106h-9.55255v70.69106h-9.65086v42.01767h9.65086v70.69106h9.55255v-70.69106h9.15834v-42.01767h-9.15834Zm-5.02254,28.26345c-4.00653,0-7.25412-3.24808-7.25412-7.25461s3.24759-7.25461,7.25412-7.25461c4.00702,0,7.2551,3.24808,7.2551,7.25461s-3.24808,7.25461-7.2551,7.25461Z"/>
    <path class="cls-1" d="m515.53564,369.15973v-78.74442h-9.55255v78.74442h-9.65086v25.91095h9.65086v78.74442h9.55255v-78.74442h9.15834v-25.91095h-9.15834Zm-5.02254,20.21009c-4.00653,0-7.25412-3.24808-7.25412-7.25461s3.24759-7.25461,7.25412-7.25461c4.00702,0,7.2551,3.24808,7.2551,7.25461s-3.24808,7.25461-7.2551,7.25461Z"/>
    <path class="cls-15" d="m550.98794,329.3306v-58.61102h-9.55255v58.61102h-9.65086v66.17776h9.65086v58.61102h9.55255v-58.61102h9.15834v-66.17776h-9.15834Zm-5.02254,40.34349c-4.00653,0-7.25412-3.24808-7.25412-7.25461s3.24759-7.25461,7.25412-7.25461c4.00702,0,7.2551,3.24808,7.2551,7.25461s-3.24808,7.25461-7.2551,7.25461Z"/>
    <path class="cls-17" d="m586.44024,297.55484v-46.53097h-9.55255v46.53097h-9.65086v90.33784h9.65086v46.53097h9.55255v-46.53097h9.15834v-90.33784h-9.15834Zm-5.02254,52.42354c-4.00653,0-7.25412-3.24808-7.25412-7.25461s3.24759-7.25461,7.25412-7.25461c4.00702,0,7.2551,3.24808,7.2551,7.25461s-3.24808,7.25461-7.2551,7.25461Z"/>
    <path class="cls-11" d="m621.89254,323.55319v-46.53097h-9.55255v46.53097h-9.65086v90.33784h9.65086v46.53097h9.55255v-46.53097h9.15834v-90.33784h-9.15834Zm-5.02254,52.42354c-4.00653,0-7.25412-3.24808-7.25412-7.25461s3.24759-7.25461,7.25412-7.25461c4.00702,0,7.2551,3.24808,7.2551,7.25461s-3.24808,7.25461-7.2551,7.25461Z"/>
    <path class="cls-12" d="m657.34484,361.63159v-58.61102h-9.55255v58.61102h-9.65086v66.17776h9.65086v58.61102h9.55255v-58.61102h9.15834v-66.17776h-9.15834Zm-5.02254,40.34349c-4.00653,0-7.25412-3.24808-7.25412-7.25461s3.24759-7.25461,7.25412-7.25461c4.00702,0,7.2551,3.24808,7.2551,7.25461s-3.24808,7.25461-7.2551,7.25461Z"/>
  </g>
  <circle class="cls-16" cx="589.69881" cy="11.47826" r="11.47826"/>
</svg>