<?xml version="1.0" encoding="UTF-8"?>
<svg id="_圖層_1" data-name="圖層 1" xmlns="http://www.w3.org/2000/svg" xmlns:xlink="http://www.w3.org/1999/xlink" viewBox="0 0 436.59783 313.76087">
  <defs>
    <style>
      .cls-1 {
        fill: url(#_未命名漸層_14);
      }

      .cls-2, .cls-3 {
        fill: none;
      }

      .cls-3 {
        clip-path: url(#clippath);
      }
    </style>
    <clipPath id="clippath">
      <rect class="cls-2" width="436.59783" height="313.76087"/>
    </clipPath>
    <radialGradient id="_未命名漸層_14" data-name="未命名漸層 14" cx="182.2734" cy="6298.0093" fx="182.2734" fy="6298.0093" r="261.48466" gradientTransform="translate(0 6456.46008) scale(1 -1)" gradientUnits="userSpaceOnUse">
      <stop offset=".28771" stop-color="#fff" stop-opacity="0"/>
      <stop offset=".77654" stop-color="#fff"/>
    </radialGradient>
  </defs>
  <g class="cls-3">
    <path class="cls-1" d="m314.56609,280.21733c-1.80258,0-3.49561.46474-4.97006,1.27754-2.12637-2.05901-4.25267-4.11802-6.37903-6.17702-9.01575-8.73001-18.03136-17.46016-27.04682-26.19058-3.61781-3.50345-7.23514-7.00731-10.85281-10.51076,1.90897-2.85264,3.02521-6.28069,3.02521-9.9709,0-9.91606-8.03857-17.95455-17.95462-17.95455-8.845,0-16.17891,6.40156-17.66378,14.82057-2.25186-.00392-4.50371-.00811-6.75557-.01189-11.0381-.01917-22.07628-.03735-33.11438-.05442-1.62652-.00252-3.25296-.00462-4.87941-.00713-1.62944-19.38444-17.86852-34.61184-37.67419-34.61184-19.77483,0-35.99493,15.17997-37.66726,34.52104-8.43028-.00616-16.86056-.01231-25.29083-.00811-.14486,0-.28987-.00056-.43473-.00056-1.30139-5.95305-6.06804-10.60141-12.08314-11.73206.0021-6.63267.00426-13.26534.00644-19.89815.00322-9.89451.00644-19.78903.00958-29.68368.00252-7.7345.00503-15.469.00755-23.20364,7.07062-1.34022,12.42029-7.54298,12.42029-15.00342,0-2.8802-.81154-5.56455-2.19687-7.86404,5.21859-4.66739,10.43718-9.33492,15.65577-14.00246l22.82221-20.41214c2.77641-2.48318,5.55295-4.96636,8.32933-7.44967,5.04344,4.60836,11.75585,7.42029,19.12598,7.42029,15.66527,0,28.36445-12.69903,28.36445-28.36445s-12.69918-28.36443-28.36446-28.36443-28.36445,12.69931-28.36445,28.36445c0,6.23494,2.01676,11.99619,5.42648,16.67771-1.73143,1.54866-3.46281,3.09718-5.19424,4.64571-7.46387,6.67562-14.92766,13.35123-22.39154,20.02685l-19.22398,17.19394c-2.57264-1.96919-5.77915-3.1523-9.26924-3.1523-8.43916,0-15.28048,6.84139-15.28048,15.28056,0,7.45709,5.34471,13.65789,12.41056,15.00202l-.00462,14.27288c-.00329,9.99272-.00651,19.98544-.00972,29.9783-.003,9.13697-.00595,18.27394-.00888,27.41091-.00014.37772-.00021.75559-.00036,1.13345-7.05424,1.35337-12.38699,7.54942-12.38699,14.99838,0,8.4393,6.84132,15.28056,15.28048,15.28056,7.60034,0,13.88669-5.55462,15.06497-12.82228,1.03412-.00042,2.06824-.00336,3.10236-.00364,7.47086-.00168,14.94173.00811,22.41259.01371,1.25704,19.75041,17.66504,35.38281,37.73274,35.38281,20.03832,0,36.42679-15.58707,37.72623-35.29664,13.61571.02098,27.23135.04309,40.84699.06659l3.7682.00672c1.26096,8.68258,8.71385,15.35876,17.7459,15.35876,4.14516,0,7.9512-1.41856,10.99012-3.77807,2.988,2.87531,5.97977,5.74684,8.95776,8.63068,11.44213,11.08056,22.88467,22.1607,34.32729,33.24057.29246.28315.58491.56644.87737.8496-.81917,1.47885-1.28873,3.17833-1.28873,4.9886,0,5.69648,4.61787,10.31434,10.31434,10.31434s10.31434-4.61787,10.31434-10.31434-4.61794-10.31434-10.31434-10.31434Z"/>
  </g>
</svg>