<?xml version="1.0" encoding="UTF-8"?>
<svg id="_圖層_1" data-name="圖層 1" xmlns="http://www.w3.org/2000/svg" xmlns:xlink="http://www.w3.org/1999/xlink" viewBox="0 0 494.67395 321.29039">
  <defs>
    <style>
      .cls-1 {
        fill: url(#_未命名漸層_11);
      }

      .cls-2 {
        fill: url(#_未命名漸層_11-3);
      }

      .cls-3 {
        fill: url(#_未命名漸層_11-6);
      }

      .cls-4 {
        fill: url(#_未命名漸層_11-2);
      }

      .cls-5 {
        fill: url(#_未命名漸層_11-5);
      }

      .cls-6 {
        fill: url(#_未命名漸層_11-4);
      }
    </style>
    <radialGradient id="_未命名漸層_11" data-name="未命名漸層 11" cx="107.73102" cy="300.05664" fx="107.73102" fy="300.05664" r="442.35966" gradientUnits="userSpaceOnUse">
      <stop offset="0" stop-color="#fff" stop-opacity="0"/>
      <stop offset=".37264" stop-color="#fff" stop-opacity=".00735"/>
      <stop offset=".50689" stop-color="#fff" stop-opacity=".03399"/>
      <stop offset=".60258" stop-color="#fff" stop-opacity=".08036"/>
      <stop offset=".67999" stop-color="#fff" stop-opacity=".14667"/>
      <stop offset=".74626" stop-color="#fff" stop-opacity=".23299"/>
      <stop offset=".80498" stop-color="#fff" stop-opacity=".33967"/>
      <stop offset=".8581" stop-color="#fff" stop-opacity=".46688"/>
      <stop offset=".90691" stop-color="#fff" stop-opacity=".61488"/>
      <stop offset=".95232" stop-color="#fff" stop-opacity=".78417"/>
      <stop offset=".99262" stop-color="#fff" stop-opacity=".96381"/>
      <stop offset="1" stop-color="#fff"/>
    </radialGradient>
    <radialGradient id="_未命名漸層_11-2" data-name="未命名漸層 11" cx="107.73102" cy="300.05664" fx="107.73102" fy="300.05664" r="442.35966" xlink:href="#_未命名漸層_11"/>
    <radialGradient id="_未命名漸層_11-3" data-name="未命名漸層 11" cx="107.73102" cy="300.05664" fx="107.73102" fy="300.05664" r="442.35966" xlink:href="#_未命名漸層_11"/>
    <radialGradient id="_未命名漸層_11-4" data-name="未命名漸層 11" cx="107.73102" cy="300.05664" fx="107.73102" fy="300.05664" r="442.35966" xlink:href="#_未命名漸層_11"/>
    <radialGradient id="_未命名漸層_11-5" data-name="未命名漸層 11" cy="300.05664" fy="300.05664" r="442.35966" xlink:href="#_未命名漸層_11"/>
    <radialGradient id="_未命名漸層_11-6" data-name="未命名漸層 11" cx="107.73102" cy="300.05664" fx="107.73102" fy="300.05664" r="442.35966" xlink:href="#_未命名漸層_11"/>
  </defs>
  <path class="cls-1" d="m330.07495,187.92574c8.46558-8.46558,12.5979-19.61865,12.40454-30.71191-.10986-6.29443,5.08765-11.49194,11.38208-11.38232,11.09338.19336,22.24634-3.93896,30.71216-12.40454,16.50635-16.50635,16.55933-43.2356.15906-59.80762-16.94507-17.12256-45.13416-16.56812-61.41589,1.18628-7.58362,8.26953-11.28687,18.81738-11.11621,29.31567.10303,6.33472-5.09668,11.53442-11.43152,11.43164-10.49841-.17065-21.04663,3.53271-29.31628,11.11646-17.75415,16.28223-18.30786,44.47119-1.18518,61.41602,16.57214,16.3999,43.3009,16.34668,59.80725-.15967Z"/>
  <path class="cls-4" d="m487.40527,278.97554c-4.95459-4.95459-11.48193-7.37305-17.97437-7.26001-3.68384.06421-6.72583-2.97754-6.66162-6.66138.11328-6.49243-2.30518-13.02002-7.25977-17.97461-9.66052-9.6604-25.30396-9.69141-35.00281-.09302-10.02112,9.91724-9.69666,26.41504.69421,35.94409,4.83984,4.43823,11.01306,6.60571,17.15723,6.50586,3.7074-.0603,6.75073,2.98291,6.69043,6.69043-.09985,6.14404,2.0675,12.31763,6.5061,17.15747,9.52905,10.39062,26.02686,10.71484,35.94397.6936,9.59802-9.69897,9.56702-25.34229-.09338-35.00244Z"/>
  <path class="cls-2" d="m406.69641,90.18452c-.79822,18.45459,14.18567,34.03882,32.6571,33.94238,17.87744-.09351,32.34094-14.61475,32.34094-32.51416,0-9.17993-3.80676-17.46777-9.92639-23.37769-3.47229-3.35327-3.47229-8.9895,0-12.34277,6.11963-5.90991,9.92639-14.19775,9.92639-23.37793C471.69446,14.61494,457.23071.0937,439.35303.00044c-18.47144-.09619-33.45508,15.48828-32.65649,33.94287.37183,8.5957,4.08301,16.32251,9.86768,21.92212,3.49048,3.37891,3.4906,9.01758,0,12.39648-5.78467,5.59961-9.49597,13.3269-9.8678,21.92261Z"/>
  <path class="cls-6" d="m416.71509,196.13008c3.328,0,6.38599,1.86938,7.86353,4.85132,5.00195,10.09399,15.40491,17.03491,27.43372,17.03491,16.85901,0,30.5343-13.63037,30.60742-30.47217.07239-16.6875-13.47034-30.49976-30.15637-30.73999-12.19067-.17554-22.77051,6.77881-27.84875,16.95923-1.49854,3.00415-4.54285,4.92358-7.8999,4.92358h-.00012c-3.35693,0-6.40137-1.91943-7.8999-4.92358-5.07812-10.18042-15.65796-17.13477-27.84851-16.95923-16.68616.24023-30.22888,14.05225-30.15662,30.73999.073,16.8418,13.74854,30.47217,30.60742,30.47217,12.02881,0,22.43188-6.94092,27.43372-17.03491,1.47766-2.98193,4.53552-4.85132,7.86353-4.85132h.00085Z"/>
  <path class="cls-5" d="m359.76147,226.41036c-14.31396-.20605-26.73682,7.95972-32.69971,19.91357-1.75952,3.52734-5.33411,5.78101-9.276,5.78101s-7.51648-2.25366-9.276-5.78101c-5.96289-11.95386-18.38562-20.11963-32.69958-19.91357-19.59265.28198-35.49451,16.50024-35.40955,36.09473.08569,19.77539,16.14331,35.78003,35.93896,35.78003,14.12402,0,26.33936-8.1499,32.2124-20.0022,1.73486-3.50122,5.32568-5.69629,9.23315-5.69629h.00122c3.90747,0,7.49829,2.19507,9.23315,5.69629,5.87305,11.85229,18.08838,20.0022,32.2124,20.0022,19.79565,0,35.85315-16.00439,35.93896-35.78003.08496-19.59448-15.81677-35.81274-35.40942-36.09473Z"/>
  <circle class="cls-3" cx="7.30444" cy="308.4045" r="7.30444"/>
</svg>