<svg width="256" height="190" viewBox="0 0 256 190" fill="none" xmlns="http://www.w3.org/2000/svg">
<g clip-path="url(#clip0_7650_77)">
<path d="M115.629 132.047C120.356 132.047 124.188 128.208 124.188 123.473C124.188 118.737 120.356 114.898 115.629 114.898C110.902 114.898 107.07 118.737 107.07 123.473C107.07 128.208 110.902 132.047 115.629 132.047Z" fill="url(#paint0_linear_7650_77)"/>
<path d="M247.441 155.625C252.168 155.625 256 151.787 256 147.051C256 142.315 252.168 138.477 247.441 138.477C242.714 138.477 238.882 142.315 238.882 147.051C238.882 151.787 242.714 155.625 247.441 155.625Z" fill="url(#paint1_linear_7650_77)"/>
<path d="M219.195 170.204C223.923 170.204 227.755 166.365 227.755 161.629C227.755 156.894 223.923 153.055 219.195 153.055C214.468 153.055 210.636 156.894 210.636 161.629C210.636 166.365 214.468 170.204 219.195 170.204Z" fill="url(#paint2_linear_7650_77)"/>
<path d="M216.628 143.196C221.355 143.196 225.187 139.357 225.187 134.621C225.187 129.886 221.355 126.047 216.628 126.047C211.9 126.047 208.068 129.886 208.068 134.621C208.068 139.357 211.9 143.196 216.628 143.196Z" fill="url(#paint3_linear_7650_77)"/>
<path d="M122.476 86.1723C127.203 86.1723 131.035 82.3334 131.035 77.5979C131.035 72.8623 127.203 69.0234 122.476 69.0234C117.749 69.0234 113.917 72.8623 113.917 77.5979C113.917 82.3334 117.749 86.1723 122.476 86.1723Z" fill="url(#paint4_linear_7650_77)"/>
<path d="M86.6742 109.844C91.4013 109.844 95.2334 106.005 95.2334 101.27C95.2334 96.5342 91.4013 92.6953 86.6742 92.6953C81.9471 92.6953 78.115 96.5342 78.115 101.27C78.115 106.005 81.9471 109.844 86.6742 109.844Z" fill="url(#paint5_linear_7650_77)"/>
<path d="M198.653 82.7426C203.38 82.7426 207.212 78.9037 207.212 74.1682C207.212 69.4327 203.38 65.5938 198.653 65.5938C193.926 65.5938 190.094 69.4327 190.094 74.1682C190.094 78.9037 193.926 82.7426 198.653 82.7426Z" fill="url(#paint6_linear_7650_77)"/>
<path d="M245.301 65.1645C250.028 65.1645 253.86 61.3256 253.86 56.5901C253.86 51.8545 250.028 48.0156 245.301 48.0156C240.574 48.0156 236.742 51.8545 236.742 56.5901C236.742 61.3256 240.574 65.1645 245.301 65.1645Z" fill="url(#paint7_linear_7650_77)"/>
<path d="M98.0824 53.1645C102.81 53.1645 106.642 49.3256 106.642 44.5901C106.642 39.8545 102.81 36.0156 98.0824 36.0156C93.3553 36.0156 89.5232 39.8545 89.5232 44.5901C89.5232 49.3256 93.3553 53.1645 98.0824 53.1645Z" fill="url(#paint8_linear_7650_77)"/>
<path d="M45.2455 30.0942C49.9726 30.0942 53.8047 26.2553 53.8047 21.5198C53.8047 16.7842 49.9726 12.9453 45.2455 12.9453C40.5184 12.9453 36.6863 16.7842 36.6863 21.5198C36.6863 26.2553 40.5184 30.0942 45.2455 30.0942Z" fill="url(#paint9_linear_7650_77)"/>
<path d="M158.853 39.8676C163.58 39.8676 167.412 36.0287 167.412 31.2932C167.412 26.5577 163.58 22.7188 158.853 22.7188C154.126 22.7188 150.294 26.5577 150.294 31.2932C150.294 36.0287 154.126 39.8676 158.853 39.8676Z" fill="url(#paint10_linear_7650_77)"/>
<path d="M139.595 64.7348C144.322 64.7348 148.154 60.8959 148.154 56.1604C148.154 51.4248 144.322 47.5859 139.595 47.5859C134.868 47.5859 131.035 51.4248 131.035 56.1604C131.035 60.8959 134.868 64.7348 139.595 64.7348Z" fill="url(#paint11_linear_7650_77)"/>
<path d="M123.126 31.5624C131.313 31.5624 137.951 24.9132 137.951 16.7109C137.951 8.50863 131.313 1.85938 123.126 1.85938C114.938 1.85938 108.301 8.50863 108.301 16.7109C108.301 24.9132 114.938 31.5624 123.126 31.5624Z" fill="url(#paint12_linear_7650_77)"/>
<path d="M185.386 54.8755C190.113 54.8755 193.946 51.0365 193.946 46.301C193.946 41.5655 190.113 37.7266 185.386 37.7266C180.659 37.7266 176.827 41.5655 176.827 46.301C176.827 51.0365 180.659 54.8755 185.386 54.8755Z" fill="url(#paint13_linear_7650_77)"/>
<path d="M188.382 128.188C193.109 128.188 196.941 124.349 196.941 119.614C196.941 114.878 193.109 111.039 188.382 111.039C183.655 111.039 179.823 114.878 179.823 119.614C179.823 124.349 183.655 128.188 188.382 128.188Z" fill="url(#paint14_linear_7650_77)"/>
<path d="M146.656 160.343C153.392 160.343 158.853 154.873 158.853 148.125C158.853 141.377 153.392 135.906 146.656 135.906C139.92 135.906 134.459 141.377 134.459 148.125C134.459 154.873 139.92 160.343 146.656 160.343Z" fill="url(#paint15_linear_7650_77)"/>
<path d="M163.775 193.781C170.511 193.781 175.971 188.31 175.971 181.562C175.971 174.814 170.511 169.344 163.775 169.344C157.038 169.344 151.578 174.814 151.578 181.562C151.578 188.31 157.038 193.781 163.775 193.781Z" fill="url(#paint16_linear_7650_77)"/>
<path d="M79.2816 187.328C86.0178 187.328 91.4785 181.857 91.4785 175.109C91.4785 168.361 86.0178 162.891 79.2816 162.891C72.5454 162.891 67.0847 168.361 67.0847 175.109C67.0847 181.857 72.5454 187.328 79.2816 187.328Z" fill="url(#paint17_linear_7650_77)"/>
<path d="M143.232 120.468C149.968 120.468 155.429 114.998 155.429 108.25C155.429 101.502 149.968 96.0312 143.232 96.0312C136.496 96.0312 131.035 101.502 131.035 108.25C131.035 114.998 136.496 120.468 143.232 120.468Z" fill="url(#paint18_linear_7650_77)"/>
<path d="M12.1969 109.711C18.933 109.711 24.3938 104.24 24.3938 97.492C24.3938 90.7439 18.933 85.2734 12.1969 85.2734C5.46073 85.2734 0 90.7439 0 97.492C0 104.24 5.46073 109.711 12.1969 109.711Z" fill="url(#paint19_linear_7650_77)"/>
<path d="M68.1588 84.6637C74.895 84.6637 80.3557 79.1933 80.3557 72.4452C80.3557 65.697 74.895 60.2266 68.1588 60.2266C61.4226 60.2266 55.9619 65.697 55.9619 72.4452C55.9619 79.1933 61.4226 84.6637 68.1588 84.6637Z" fill="url(#paint20_linear_7650_77)"/>
<path d="M218.125 53.1637C224.862 53.1637 230.322 47.6933 230.322 40.9452C230.322 34.197 224.862 28.7266 218.125 28.7266C211.389 28.7266 205.928 34.197 205.928 40.9452C205.928 47.6933 211.389 53.1637 218.125 53.1637Z" fill="url(#paint21_linear_7650_77)"/>
<path d="M165.272 90.4578C173.308 90.4578 179.823 83.9317 179.823 75.8812C179.823 67.8308 173.308 61.3047 165.272 61.3047C157.236 61.3047 150.722 67.8308 150.722 75.8812C150.722 83.9317 157.236 90.4578 165.272 90.4578Z" fill="url(#paint22_linear_7650_77)"/>
<path d="M187.526 167.2C195.562 167.2 202.077 160.674 202.077 152.623C202.077 144.573 195.562 138.047 187.526 138.047C179.49 138.047 172.976 144.573 172.976 152.623C172.976 160.674 179.49 167.2 187.526 167.2Z" fill="url(#paint23_linear_7650_77)"/>
<path d="M195.23 29.1531C203.266 29.1531 209.78 22.627 209.78 14.5766C209.78 6.52615 203.266 0 195.23 0C187.194 0 180.679 6.52615 180.679 14.5766C180.679 22.627 187.194 29.1531 195.23 29.1531Z" fill="url(#paint24_linear_7650_77)"/>
<path d="M122.69 176.85C125.763 176.85 128.254 174.355 128.254 171.277C128.254 168.198 125.763 165.703 122.69 165.703C119.618 165.703 117.127 168.198 117.127 171.277C117.127 174.355 119.618 176.85 122.69 176.85Z" fill="url(#paint25_linear_7650_77)"/>
<path d="M201.435 191.85C204.508 191.85 206.999 189.355 206.999 186.277C206.999 183.198 204.508 180.703 201.435 180.703C198.362 180.703 195.872 183.198 195.872 186.277C195.872 189.355 198.362 191.85 201.435 191.85Z" fill="url(#paint26_linear_7650_77)"/>
<path d="M166.77 129.686C169.843 129.686 172.334 127.191 172.334 124.112C172.334 121.034 169.843 118.539 166.77 118.539C163.697 118.539 161.207 121.034 161.207 124.112C161.207 127.191 163.697 129.686 166.77 129.686Z" fill="url(#paint27_linear_7650_77)"/>
<path d="M222.405 72.6702C225.478 72.6702 227.969 70.1749 227.969 67.0968C227.969 64.0187 225.478 61.5234 222.405 61.5234C219.332 61.5234 216.842 64.0187 216.842 67.0968C216.842 70.1749 219.332 72.6702 222.405 72.6702Z" fill="url(#paint28_linear_7650_77)"/>
<path d="M190.308 101.389C193.381 101.389 195.871 98.8937 195.871 95.8156C195.871 92.7375 193.381 90.2422 190.308 90.2422C187.235 90.2422 184.744 92.7375 184.744 95.8156C184.744 98.8937 187.235 101.389 190.308 101.389Z" fill="url(#paint29_linear_7650_77)"/>
<path d="M171.692 108.465C174.055 108.465 175.971 106.546 175.971 104.178C175.971 101.81 174.055 99.8906 171.692 99.8906C169.328 99.8906 167.412 101.81 167.412 104.178C167.412 106.546 169.328 108.465 171.692 108.465Z" fill="url(#paint30_linear_7650_77)"/>
<path d="M58.1175 103.996C60.4811 103.996 62.3971 102.077 62.3971 99.7091C62.3971 97.3413 60.4811 95.4219 58.1175 95.4219C55.7539 95.4219 53.8379 97.3413 53.8379 99.7091C53.8379 102.077 55.7539 103.996 58.1175 103.996Z" fill="url(#paint31_linear_7650_77)"/>
<path d="M246.585 83.176C248.948 83.176 250.864 81.2565 250.864 78.8888C250.864 76.521 248.948 74.6016 246.585 74.6016C244.221 74.6016 242.305 76.521 242.305 78.8888C242.305 81.2565 244.221 83.176 246.585 83.176Z" fill="url(#paint32_linear_7650_77)"/>
<path d="M106.642 159.915C112.314 159.915 116.913 155.308 116.913 149.625C116.913 143.943 112.314 139.336 106.642 139.336C100.969 139.336 96.3706 143.943 96.3706 149.625C96.3706 155.308 100.969 159.915 106.642 159.915Z" fill="url(#paint33_linear_7650_77)"/>
<path d="M229.038 194.641C234.711 194.641 239.309 190.034 239.309 184.352C239.309 178.669 234.711 174.062 229.038 174.062C223.366 174.062 218.767 178.669 218.767 184.352C218.767 190.034 223.366 194.641 229.038 194.641Z" fill="url(#paint34_linear_7650_77)"/>
<path d="M224.545 120.469C235.063 120.469 243.589 111.927 243.589 101.391C243.589 90.8541 235.063 82.3125 224.545 82.3125C214.027 82.3125 205.5 90.8541 205.5 101.391C205.5 111.927 214.027 120.469 224.545 120.469Z" fill="url(#paint35_linear_7650_77)"/>
<path d="M49.8309 150.602C60.3487 150.602 68.8751 142.06 68.8751 131.523C68.8751 120.987 60.3487 112.445 49.8309 112.445C39.313 112.445 30.7866 120.987 30.7866 131.523C30.7866 142.06 39.313 150.602 49.8309 150.602Z" fill="url(#paint36_linear_7650_77)"/>
</g>
<defs>
<linearGradient id="paint0_linear_7650_77" x1="115.516" y1="115.937" x2="115.718" y2="129.386" gradientUnits="userSpaceOnUse">
<stop stop-color="white" stop-opacity="0"/>
<stop offset="1" stop-color="white"/>
</linearGradient>
<linearGradient id="paint1_linear_7650_77" x1="247.328" y1="139.516" x2="247.53" y2="152.965" gradientUnits="userSpaceOnUse">
<stop stop-color="white" stop-opacity="0"/>
<stop offset="1" stop-color="white"/>
</linearGradient>
<linearGradient id="paint2_linear_7650_77" x1="219.082" y1="154.094" x2="219.285" y2="167.543" gradientUnits="userSpaceOnUse">
<stop stop-color="white" stop-opacity="0"/>
<stop offset="1" stop-color="white"/>
</linearGradient>
<linearGradient id="paint3_linear_7650_77" x1="216.514" y1="127.086" x2="216.717" y2="140.535" gradientUnits="userSpaceOnUse">
<stop stop-color="white" stop-opacity="0"/>
<stop offset="1" stop-color="white"/>
</linearGradient>
<linearGradient id="paint4_linear_7650_77" x1="122.363" y1="70.0624" x2="122.566" y2="83.5115" gradientUnits="userSpaceOnUse">
<stop stop-color="white" stop-opacity="0"/>
<stop offset="1" stop-color="white"/>
</linearGradient>
<linearGradient id="paint5_linear_7650_77" x1="86.5611" y1="93.7343" x2="86.7637" y2="107.183" gradientUnits="userSpaceOnUse">
<stop stop-color="white" stop-opacity="0"/>
<stop offset="1" stop-color="white"/>
</linearGradient>
<linearGradient id="paint6_linear_7650_77" x1="198.54" y1="66.6327" x2="198.743" y2="80.0818" gradientUnits="userSpaceOnUse">
<stop stop-color="white" stop-opacity="0"/>
<stop offset="1" stop-color="white"/>
</linearGradient>
<linearGradient id="paint7_linear_7650_77" x1="245.188" y1="49.0546" x2="245.39" y2="62.5037" gradientUnits="userSpaceOnUse">
<stop stop-color="white" stop-opacity="0"/>
<stop offset="1" stop-color="white"/>
</linearGradient>
<linearGradient id="paint8_linear_7650_77" x1="97.9693" y1="37.0546" x2="98.1719" y2="50.5037" gradientUnits="userSpaceOnUse">
<stop stop-color="white" stop-opacity="0"/>
<stop offset="1" stop-color="white"/>
</linearGradient>
<linearGradient id="paint9_linear_7650_77" x1="45.1324" y1="13.9843" x2="45.335" y2="27.4334" gradientUnits="userSpaceOnUse">
<stop stop-color="white" stop-opacity="0"/>
<stop offset="1" stop-color="white"/>
</linearGradient>
<linearGradient id="paint10_linear_7650_77" x1="158.74" y1="23.7577" x2="158.942" y2="37.2068" gradientUnits="userSpaceOnUse">
<stop stop-color="white" stop-opacity="0"/>
<stop offset="1" stop-color="white"/>
</linearGradient>
<linearGradient id="paint11_linear_7650_77" x1="139.482" y1="48.6249" x2="139.684" y2="62.074" gradientUnits="userSpaceOnUse">
<stop stop-color="white" stop-opacity="0"/>
<stop offset="1" stop-color="white"/>
</linearGradient>
<linearGradient id="paint12_linear_7650_77" x1="122.93" y1="3.65897" x2="123.281" y2="26.9536" gradientUnits="userSpaceOnUse">
<stop stop-color="white" stop-opacity="0"/>
<stop offset="1" stop-color="white"/>
</linearGradient>
<linearGradient id="paint13_linear_7650_77" x1="185.273" y1="38.7655" x2="185.476" y2="52.2146" gradientUnits="userSpaceOnUse">
<stop stop-color="white" stop-opacity="0"/>
<stop offset="1" stop-color="white"/>
</linearGradient>
<linearGradient id="paint14_linear_7650_77" x1="188.269" y1="112.078" x2="188.472" y2="125.527" gradientUnits="userSpaceOnUse">
<stop stop-color="white" stop-opacity="0"/>
<stop offset="1" stop-color="white"/>
</linearGradient>
<linearGradient id="paint15_linear_7650_77" x1="146.495" y1="137.387" x2="146.783" y2="156.552" gradientUnits="userSpaceOnUse">
<stop stop-color="white" stop-opacity="0"/>
<stop offset="1" stop-color="white"/>
</linearGradient>
<linearGradient id="paint16_linear_7650_77" x1="163.613" y1="170.824" x2="163.902" y2="189.989" gradientUnits="userSpaceOnUse">
<stop stop-color="white" stop-opacity="0"/>
<stop offset="1" stop-color="white"/>
</linearGradient>
<linearGradient id="paint17_linear_7650_77" x1="79.1204" y1="164.371" x2="79.4091" y2="183.536" gradientUnits="userSpaceOnUse">
<stop stop-color="white" stop-opacity="0"/>
<stop offset="1" stop-color="white"/>
</linearGradient>
<linearGradient id="paint18_linear_7650_77" x1="143.071" y1="97.5118" x2="143.36" y2="116.677" gradientUnits="userSpaceOnUse">
<stop stop-color="white" stop-opacity="0"/>
<stop offset="1" stop-color="white"/>
</linearGradient>
<linearGradient id="paint19_linear_7650_77" x1="12.0357" y1="86.754" x2="12.3244" y2="105.919" gradientUnits="userSpaceOnUse">
<stop stop-color="white" stop-opacity="0"/>
<stop offset="1" stop-color="white"/>
</linearGradient>
<linearGradient id="paint20_linear_7650_77" x1="67.9976" y1="61.7071" x2="68.2863" y2="80.872" gradientUnits="userSpaceOnUse">
<stop stop-color="white" stop-opacity="0"/>
<stop offset="1" stop-color="white"/>
</linearGradient>
<linearGradient id="paint21_linear_7650_77" x1="217.964" y1="30.2071" x2="218.253" y2="49.372" gradientUnits="userSpaceOnUse">
<stop stop-color="white" stop-opacity="0"/>
<stop offset="1" stop-color="white"/>
</linearGradient>
<linearGradient id="paint22_linear_7650_77" x1="165.08" y1="63.071" x2="165.424" y2="85.9344" gradientUnits="userSpaceOnUse">
<stop stop-color="white" stop-opacity="0"/>
<stop offset="1" stop-color="white"/>
</linearGradient>
<linearGradient id="paint23_linear_7650_77" x1="187.334" y1="139.813" x2="187.678" y2="162.677" gradientUnits="userSpaceOnUse">
<stop stop-color="white" stop-opacity="0"/>
<stop offset="1" stop-color="white"/>
</linearGradient>
<linearGradient id="paint24_linear_7650_77" x1="195.037" y1="1.76628" x2="195.382" y2="24.6297" gradientUnits="userSpaceOnUse">
<stop stop-color="white" stop-opacity="0"/>
<stop offset="1" stop-color="white"/>
</linearGradient>
<linearGradient id="paint25_linear_7650_77" x1="122.617" y1="166.378" x2="122.748" y2="175.12" gradientUnits="userSpaceOnUse">
<stop stop-color="white" stop-opacity="0"/>
<stop offset="1" stop-color="white"/>
</linearGradient>
<linearGradient id="paint26_linear_7650_77" x1="201.362" y1="181.378" x2="201.493" y2="190.12" gradientUnits="userSpaceOnUse">
<stop stop-color="white" stop-opacity="0"/>
<stop offset="1" stop-color="white"/>
</linearGradient>
<linearGradient id="paint27_linear_7650_77" x1="166.697" y1="119.214" x2="166.828" y2="127.956" gradientUnits="userSpaceOnUse">
<stop stop-color="white" stop-opacity="0"/>
<stop offset="1" stop-color="white"/>
</linearGradient>
<linearGradient id="paint28_linear_7650_77" x1="222.332" y1="62.1988" x2="222.463" y2="70.9407" gradientUnits="userSpaceOnUse">
<stop stop-color="white" stop-opacity="0"/>
<stop offset="1" stop-color="white"/>
</linearGradient>
<linearGradient id="paint29_linear_7650_77" x1="190.234" y1="90.9175" x2="190.366" y2="99.6594" gradientUnits="userSpaceOnUse">
<stop stop-color="white" stop-opacity="0"/>
<stop offset="1" stop-color="white"/>
</linearGradient>
<linearGradient id="paint30_linear_7650_77" x1="171.635" y1="100.41" x2="171.736" y2="107.135" gradientUnits="userSpaceOnUse">
<stop stop-color="white" stop-opacity="0"/>
<stop offset="1" stop-color="white"/>
</linearGradient>
<linearGradient id="paint31_linear_7650_77" x1="58.0609" y1="95.9414" x2="58.1622" y2="102.666" gradientUnits="userSpaceOnUse">
<stop stop-color="white" stop-opacity="0"/>
<stop offset="1" stop-color="white"/>
</linearGradient>
<linearGradient id="paint32_linear_7650_77" x1="246.528" y1="75.1211" x2="246.63" y2="81.8456" gradientUnits="userSpaceOnUse">
<stop stop-color="white" stop-opacity="0"/>
<stop offset="1" stop-color="white"/>
</linearGradient>
<linearGradient id="paint33_linear_7650_77" x1="106.506" y1="140.583" x2="106.749" y2="156.722" gradientUnits="userSpaceOnUse">
<stop stop-color="white" stop-opacity="0"/>
<stop offset="1" stop-color="white"/>
</linearGradient>
<linearGradient id="paint34_linear_7650_77" x1="228.903" y1="175.309" x2="229.146" y2="191.448" gradientUnits="userSpaceOnUse">
<stop stop-color="white" stop-opacity="0"/>
<stop offset="1" stop-color="white"/>
</linearGradient>
<linearGradient id="paint35_linear_7650_77" x1="224.293" y1="84.6243" x2="224.744" y2="114.548" gradientUnits="userSpaceOnUse">
<stop stop-color="white" stop-opacity="0"/>
<stop offset="1" stop-color="white"/>
</linearGradient>
<linearGradient id="paint36_linear_7650_77" x1="49.5792" y1="114.757" x2="50.03" y2="144.681" gradientUnits="userSpaceOnUse">
<stop stop-color="white" stop-opacity="0"/>
<stop offset="1" stop-color="white"/>
</linearGradient>
<clipPath id="clip0_7650_77">
<rect width="256" height="203" fill="white"/>
</clipPath>
</defs>
</svg>
