<svg width="130" height="24" viewBox="0 0 130 24" fill="none" xmlns="http://www.w3.org/2000/svg">
<path d="M5.51802 0.878418H0V18.446H18.4459V14.3678H5.51802V0.878418Z" fill="#E1E7F5"/>
<path d="M18.446 0.878418H6.7793V5.89773H10.0901V12.6425H15.2928V5.89773H18.446V0.878418Z" fill="#E1E7F5"/>
<path d="M1.8049 22.5685V22.8379H0.555954V22.5685H1.8049ZM0.621146 20.3399V22.8379H0.290039V20.3399H0.621146ZM3.99399 21.51V21.6679C3.99399 21.8554 3.97053 22.0235 3.92365 22.1722C3.87675 22.3209 3.80927 22.4472 3.72121 22.5513C3.63314 22.6554 3.52734 22.7349 3.40382 22.7898C3.28145 22.8447 3.1442 22.8722 2.99208 22.8722C2.84454 22.8722 2.70901 22.8447 2.58549 22.7898C2.46311 22.7349 2.35674 22.6554 2.26639 22.5513C2.17718 22.4472 2.10799 22.3209 2.0588 22.1722C2.00962 22.0235 1.98504 21.8554 1.98504 21.6679V21.51C1.98504 21.3224 2.00905 21.1549 2.05709 21.0073C2.10627 20.8586 2.17546 20.7323 2.26467 20.6282C2.35389 20.523 2.45968 20.4429 2.58206 20.388C2.70558 20.3331 2.84111 20.3057 2.98865 20.3057C3.14076 20.3057 3.27801 20.3331 3.40039 20.388C3.52391 20.4429 3.62971 20.523 3.71777 20.6282C3.80698 20.7323 3.87504 20.8586 3.92192 21.0073C3.96996 21.1549 3.99399 21.3224 3.99399 21.51ZM3.66631 21.6679V21.5066C3.66631 21.3579 3.65087 21.2264 3.61998 21.112C3.59025 20.9976 3.54622 20.9016 3.48788 20.8237C3.42956 20.746 3.35808 20.6871 3.27344 20.6471C3.18995 20.607 3.09502 20.587 2.98865 20.587C2.88572 20.587 2.79251 20.607 2.70901 20.6471C2.62666 20.6871 2.55576 20.746 2.49628 20.8237C2.43795 20.9016 2.39277 20.9976 2.36075 21.112C2.32872 21.2264 2.31271 21.3579 2.31271 21.5066V21.6679C2.31271 21.8176 2.32872 21.9503 2.36075 22.0658C2.39277 22.1802 2.43852 22.2768 2.49799 22.3558C2.55861 22.4335 2.63009 22.4925 2.71244 22.5324C2.79593 22.5725 2.88914 22.5925 2.99208 22.5925C3.0996 22.5925 3.19509 22.5725 3.27858 22.5324C3.36207 22.4925 3.43241 22.4335 3.4896 22.3558C3.54793 22.2768 3.59196 22.1802 3.6217 22.0658C3.65144 21.9503 3.66631 21.8176 3.66631 21.6679ZM6.41124 20.3399V22.8379H6.07841L4.82089 20.9112V22.8379H4.48979V20.3399H4.82089L6.08356 22.2717V20.3399H6.41124ZM8.84397 21.5941V22.5085C8.81305 22.5542 8.76387 22.6057 8.69639 22.6629C8.62892 22.7189 8.5357 22.7681 8.41675 22.8104C8.29895 22.8516 8.14684 22.8722 7.96041 22.8722C7.80829 22.8722 7.66819 22.8458 7.54009 22.7932C7.41314 22.7395 7.30277 22.6617 7.20898 22.5599C7.11634 22.457 7.04429 22.3323 6.99282 22.1859C6.9425 22.0384 6.91734 21.8714 6.91734 21.685V21.4911C6.91734 21.3047 6.93907 21.1383 6.98253 20.9919C7.02713 20.8455 7.09233 20.7214 7.17811 20.6196C7.26388 20.5166 7.3691 20.4389 7.49377 20.3863C7.61844 20.3325 7.7614 20.3057 7.92267 20.3057C8.11367 20.3057 8.27322 20.3388 8.40131 20.4052C8.53056 20.4704 8.6312 20.5607 8.70325 20.6763C8.77646 20.7918 8.82333 20.9233 8.84397 21.0708H8.51283C8.49796 20.9804 8.46822 20.8981 8.42361 20.8237C8.38015 20.7494 8.31782 20.69 8.23662 20.6453C8.15542 20.5996 8.05076 20.5767 7.92267 20.5767C7.80715 20.5767 7.70708 20.5979 7.62244 20.6401C7.5378 20.6825 7.46803 20.7431 7.41314 20.8221C7.35824 20.9009 7.31707 20.9964 7.28962 21.1085C7.26331 21.2207 7.25016 21.347 7.25016 21.4877V21.685C7.25016 21.8291 7.26675 21.9577 7.29991 22.071C7.33422 22.1843 7.38283 22.2809 7.44573 22.3609C7.50864 22.4399 7.58355 22.4999 7.67047 22.541C7.75854 22.5822 7.85576 22.6028 7.96212 22.6028C8.07993 22.6028 8.17543 22.5931 8.24862 22.5736C8.32183 22.5531 8.37901 22.529 8.42019 22.5016C8.46136 22.473 8.49281 22.4461 8.51454 22.421V21.8617H7.9364V21.5941H8.84397ZM11.1188 20.3399V22.8379H10.7928V20.3399H11.1188ZM11.9217 20.3399V20.611H9.99166V20.3399H11.9217ZM13.8792 22.5685V22.8379H12.5564V22.5685H13.8792ZM12.6234 20.3399V22.8379H12.2922V20.3399H12.6234ZM13.7042 21.4139V21.6832H12.5564V21.4139H13.7042ZM13.862 20.3399V20.611H12.5564V20.3399H13.862ZM15.2139 20.5613L14.387 22.8379H14.049L15.0011 20.3399H15.2191L15.2139 20.5613ZM15.907 22.8379L15.0783 20.5613L15.0733 20.3399H15.2911L16.2467 22.8379H15.907ZM15.8641 21.9132V22.1843H14.4608V21.9132H15.8641ZM16.6859 20.3399H17.0067L17.825 22.3764L18.6417 20.3399H18.9641L17.9485 22.8379H17.698L16.6859 20.3399ZM16.5813 20.3399H16.8643L16.9106 21.8634V22.8379H16.5813V20.3399ZM18.7841 20.3399H19.0671V22.8379H18.7377V21.8634L18.7841 20.3399Z" fill="#E1E7F5"/>
<path d="M29.3134 2.54031H32.3912V3.17274H29.3134V2.54031ZM28.6282 7.27301H33.2871V7.91598H28.6282V7.27301ZM27.4266 10.509H33.7931V11.1625H27.4266V10.509ZM28.3858 8.86463H33.1185V9.48652H28.3858V8.86463ZM32.212 2.54031H32.3596L32.4861 2.50869L32.9709 2.74058C32.075 4.89085 29.9669 6.17679 27.8271 6.7776C27.7428 6.57733 27.5636 6.29274 27.4266 6.13463C29.4188 5.66031 31.4531 4.44815 32.212 2.66679V2.54031ZM29.4293 3.03571C30.2093 4.49031 31.8958 5.6076 33.909 6.01869C33.7404 6.17679 33.5296 6.46139 33.4242 6.66166C31.3688 6.15571 29.6928 4.93301 28.7969 3.25706L29.4293 3.03571ZM29.7034 1.68652L30.4728 1.81301C29.9458 2.85652 29.1131 3.98436 27.9115 4.86977C27.7955 4.70112 27.5531 4.45869 27.3739 4.35328C28.5123 3.59436 29.2923 2.54031 29.7034 1.68652ZM28.7442 6.3349L29.4398 6.49301C29.1447 7.42058 28.6388 8.31652 28.0907 8.90679C27.9642 8.79085 27.6901 8.59058 27.5215 8.49571C28.059 7.95815 28.5123 7.15706 28.7442 6.3349ZM30.3147 6.2822H31.0736V10.8357H30.3147V6.2822ZM24.5596 2.15031H27.0471V2.86706H25.2763V11.3944H24.5596V2.15031ZM26.8047 2.15031H26.9417L27.0682 2.11869L27.5742 2.42436C27.2685 3.28869 26.8785 4.37436 26.5201 5.2176C27.3001 6.09247 27.4688 6.83031 27.4688 7.48382C27.4688 8.05301 27.3528 8.49571 27.0577 8.70652C26.9101 8.80139 26.7204 8.86463 26.5096 8.89625C26.2988 8.91733 26.0352 8.91733 25.7928 8.90679C25.7823 8.71706 25.719 8.41139 25.6031 8.21112C25.8455 8.2322 26.0458 8.24274 26.2144 8.22166C26.3409 8.22166 26.4569 8.19004 26.5412 8.12679C26.7098 8.01085 26.7625 7.72625 26.7625 7.41004C26.7625 6.84085 26.5728 6.12409 25.8139 5.30193C26.1934 4.34274 26.5834 3.08842 26.8047 2.36112V2.15031ZM38.6206 8.46409H43.9647V9.15977H38.6206V8.46409ZM38.315 5.2176H44.3125V5.9449H38.315V5.2176ZM40.8763 2.76166H41.6563V8.83301H40.8763V2.76166ZM43.269 1.7076L43.8277 2.34004C42.489 2.81436 40.402 3.1622 38.6523 3.35193C38.6207 3.17274 38.5152 2.88815 38.4309 2.7195C40.1385 2.49815 42.1517 2.13977 43.269 1.7076ZM34.8155 2.36112H37.2609V3.06733H34.8155V2.36112ZM37.1134 2.36112H37.2293L37.3663 2.31896L37.9144 2.51923C37.282 3.64706 36.2596 5.30193 35.4374 6.57733L34.7101 6.3349C35.5534 5.07004 36.5969 3.36247 37.1134 2.45598V2.36112ZM35.6271 5.37571H37.5139V6.08193H35.5323L35.6271 5.37571ZM37.2188 5.37571H37.3769L37.5244 5.35463L37.9882 5.47058C37.6298 8.53788 36.639 10.4141 35.1844 11.3838C35.0579 11.2257 34.7628 10.9411 34.5836 10.8357C36.0066 9.93977 36.9342 8.24274 37.2188 5.52328V5.37571ZM35.585 6.91463C36.4704 9.8976 38.5469 10.4036 41.2663 10.4141C41.709 10.4141 43.8593 10.4141 44.4179 10.393C44.2915 10.5933 44.1439 10.9517 44.1017 11.173H41.2452C38.1569 11.173 36.0066 10.5406 34.9631 7.14652L35.585 6.91463ZM49.6566 1.68652H50.4471V2.93031H49.6566V1.68652ZM45.6512 2.45598H54.4947V4.14247H53.7463V3.09896H46.3785V4.14247H45.6512V2.45598ZM49.7198 3.80517H50.3944C50.3417 4.47977 50.268 5.30193 50.1942 5.81842H49.509C49.5934 5.28085 49.6777 4.45869 49.7198 3.80517ZM47.4642 7.92652V8.41139H52.7134V7.92652H47.4642ZM47.4642 8.87517V9.37058H52.7134V8.87517H47.4642ZM47.4642 6.98842V7.4522H52.7134V6.98842H47.4642ZM46.6947 6.50355H53.5144V9.85544H46.6947V6.50355ZM50.7423 10.3087L51.2798 9.85544C52.5552 10.1927 53.9361 10.6249 54.7898 10.9306L54.1047 11.3944C53.3352 11.0992 52.0598 10.6671 50.7423 10.3087ZM47.8331 4.07923L47.6434 5.57598H52.3339L52.4498 4.07923H47.8331ZM47.1901 3.6049H53.2298L53.019 6.05031H46.8634L47.1901 3.6049ZM48.6658 9.8449L49.3193 10.256C48.4971 10.7725 47.0109 11.2046 45.7671 11.4154C45.6617 11.2573 45.4404 11.0149 45.2928 10.8673C46.5261 10.6776 48.0228 10.2665 48.6658 9.8449ZM45.4088 4.51139H47.6117V4.56409H52.4709V4.51139H54.7477V5.1122H52.4709V5.0595H47.6117V5.1122H45.4088V4.51139ZM56.002 8.20058H65.2355V8.86463H56.002V8.20058ZM56.0442 3.57328H65.1934V4.24787H56.0442V3.57328ZM56.4658 5.37571H64.8139V6.02923H56.4658V5.37571ZM57.0034 6.79869H64.2974V7.41004H57.0034V6.79869ZM60.1971 5.68139H60.9771V11.3944H60.1971V5.68139ZM59.2274 1.68652H59.9758V3.8895H59.2274V1.68652ZM61.2196 1.68652H61.9785V3.85787H61.2196V1.68652ZM59.9442 8.46409L60.5766 8.75923C59.5963 9.85544 57.815 10.7725 56.2444 11.2152C56.1285 11.0149 55.8966 10.7092 55.7279 10.5406C57.2879 10.1927 59.0482 9.38112 59.9442 8.46409ZM61.2301 8.44301C62.1261 9.39166 63.8969 10.2033 65.499 10.5406C65.3198 10.7092 65.0774 11.0254 64.9615 11.2468C63.3593 10.8041 61.599 9.8449 60.6082 8.70652L61.2301 8.44301ZM63.665 1.81301L64.4766 2.03436C64.1709 2.61409 63.7915 3.23598 63.4963 3.64706L62.8534 3.43625C63.1379 2.99355 63.4858 2.29787 63.665 1.81301ZM62.2525 4.0476L63.0747 4.24787C62.8112 4.7222 62.5371 5.20706 62.3052 5.54436L61.6412 5.34409C61.852 4.97517 62.1261 4.42706 62.2525 4.0476ZM56.8979 2.03436L57.5725 1.79193C57.9309 2.26625 58.3209 2.93031 58.4685 3.36247L57.7623 3.62598C57.6147 3.20436 57.2352 2.52977 56.8979 2.03436ZM58.2682 4.32166L59.0166 4.17409C59.259 4.52193 59.5015 4.99625 59.5963 5.31247L58.8163 5.48112C58.732 5.1649 58.5001 4.6695 58.2682 4.32166ZM71.4439 2.05544H74.1317V2.79328H71.4439V2.05544ZM70.4742 6.25058H74.859V6.98842H70.4742V6.25058ZM71.1277 2.05544H71.8866V3.32031C71.8866 4.23733 71.6652 5.33355 70.548 6.07139C70.432 5.92382 70.1263 5.64977 69.9682 5.54436C70.9801 4.90139 71.1277 4.03706 71.1277 3.29923V2.05544ZM73.7101 2.05544H74.469V4.68004C74.469 4.91193 74.4901 4.95409 74.6482 4.95409C74.7325 4.95409 75.0593 4.95409 75.1542 4.95409C75.3228 4.95409 75.3544 4.80652 75.3861 3.76301C75.5336 3.87896 75.8498 4.00544 76.0501 4.0476C75.9869 5.32301 75.7971 5.63923 75.2385 5.63923C75.1015 5.63923 74.6588 5.63923 74.5323 5.63923C73.8998 5.63923 73.7101 5.43896 73.7101 4.69058V2.05544ZM71.6231 6.95679C72.3609 8.78031 73.9736 10.1611 76.0923 10.7303C75.9025 10.8884 75.6601 11.2152 75.5442 11.4154C73.3728 10.7514 71.7706 9.25463 70.8958 7.19923L71.6231 6.95679ZM74.585 6.25058H74.7431L74.8801 6.21896L75.3861 6.42977C74.6166 9.08598 72.635 10.6565 70.4425 11.3944C70.3582 11.1836 70.1474 10.8673 69.9893 10.6987C72.0236 10.119 73.9315 8.61166 74.585 6.39815V6.25058ZM67.312 2.07652H69.6204V2.81436H67.312V2.07652ZM67.312 4.53247H69.6415V5.27031H67.312V4.53247ZM67.2909 7.03058H69.6309V7.77896H67.2909V7.03058ZM66.9958 2.07652H67.7125V5.87112C67.7125 7.51544 67.6071 9.8449 66.8693 11.4049C66.7217 11.2784 66.4055 11.0992 66.2158 11.0254C66.9431 9.53923 66.9958 7.42058 66.9958 5.87112V2.07652ZM69.1882 2.07652H69.9366V10.4457C69.9366 10.8673 69.8417 11.1098 69.5677 11.2468C69.3042 11.3733 68.872 11.3944 68.1763 11.3838C68.1552 11.1941 68.0393 10.8357 67.9339 10.6354C68.4293 10.646 68.8615 10.646 68.9985 10.6354C69.1355 10.6249 69.1882 10.5827 69.1882 10.4352V2.07652ZM80.4561 5.90274H84.8936V6.63004H80.4561V5.90274ZM81.7315 1.98166H84.3244V2.69842H81.7315V1.98166ZM83.7342 1.98166H84.609C84.9147 3.57328 85.6842 5.01733 86.6961 5.74463C86.5169 5.88166 86.2428 6.19787 86.1058 6.3876C85.0517 5.53382 84.2612 4.03706 83.9239 2.39274H83.7342V1.98166ZM84.5669 5.90274H85.368C85.368 5.90274 85.368 6.15571 85.3574 6.27166C85.2625 9.4549 85.1782 10.5617 84.9042 10.92C84.725 11.1625 84.5352 11.2468 84.2296 11.2784C83.9661 11.2995 83.5023 11.2995 83.028 11.2784C83.0069 11.036 82.9225 10.6987 82.8066 10.4879C83.2598 10.53 83.692 10.53 83.8607 10.53C84.0293 10.53 84.1136 10.509 84.198 10.4036C84.3982 10.1611 84.4931 9.08598 84.5669 6.06085V5.90274ZM81.9423 6.2295H82.7223C82.5747 8.32706 82.0688 10.2665 80.1293 11.3838C80.0344 11.2152 79.8131 10.9306 79.6444 10.7936C81.4574 9.82382 81.8263 8.04247 81.9423 6.2295ZM81.0779 2.85652L81.8474 3.05679C81.4047 4.26896 80.6352 5.67085 79.6971 6.56679C79.5917 6.40869 79.3388 6.16625 79.1806 6.03977C80.0344 5.23869 80.7512 3.93166 81.0779 2.85652ZM79.2017 1.72869L79.9501 1.96058C79.2544 3.75247 78.1688 5.53382 77.0304 6.71436C76.9461 6.53517 76.7247 6.11355 76.5771 5.93436C77.6207 4.91193 78.6115 3.33085 79.2017 1.72869ZM78.1055 4.44815L78.8434 3.69977L78.8644 3.71031V11.3733H78.1055V4.44815ZM87.6236 3.05679H96.8571V3.80517H87.6236V3.05679ZM90.1955 6.81977H95.1496V7.5049H90.1955V6.81977ZM89.6369 5.02787H95.0231V5.73409H90.4169V11.3838H89.6369V5.02787ZM94.8439 5.02787H95.6133V10.4036C95.6133 10.8673 95.5185 11.1098 95.1601 11.2363C94.8228 11.3627 94.2325 11.3627 93.3261 11.3627C93.2944 11.1414 93.1785 10.8146 93.0625 10.5933C93.7688 10.6249 94.4117 10.6144 94.6015 10.6144C94.7806 10.6038 94.8439 10.5511 94.8439 10.393V5.02787ZM91.0704 1.68652L91.8715 1.87625C91.1547 4.19517 89.8898 6.53517 87.8766 7.9476C87.7712 7.76842 87.5288 7.49436 87.3707 7.33625C89.2574 6.03977 90.5012 3.80517 91.0704 1.68652ZM90.1955 8.60112H95.1496V9.28625H90.1955V8.60112ZM102.633 4.15301H106.565V4.81706H102.633V4.15301ZM100.989 10.4668C101.959 10.2981 103.487 9.99247 104.963 9.69733L105.016 10.393C103.687 10.6987 102.275 11.0044 101.253 11.2363L100.989 10.4668ZM102.18 2.16085H102.95V10.53H102.18V2.16085ZM102.633 2.16085H106.934V6.84085H102.633V6.14517H106.164V2.85652H102.633V2.16085ZM104.668 6.3876C105.121 8.35869 106.08 10.003 107.651 10.6987C107.471 10.8568 107.24 11.1519 107.124 11.3522C105.479 10.5195 104.499 8.73814 104.014 6.51409L104.668 6.3876ZM106.765 7.08328L107.387 7.53652C106.797 8.08463 106.048 8.6749 105.458 9.0649L104.963 8.66436C105.532 8.25328 106.323 7.58923 106.765 7.08328ZM98.3539 2.15031H101.052V2.86706H99.1023V11.3944H98.3539V2.15031ZM100.82 2.15031H100.968L101.084 2.11869L101.621 2.44544C101.284 3.32031 100.841 4.40598 100.451 5.23869C101.305 6.11355 101.506 6.86193 101.506 7.51544C101.506 8.09517 101.368 8.52733 101.052 8.74869C100.894 8.85409 100.694 8.91733 100.473 8.93842C100.23 8.97004 99.935 8.97004 99.6715 8.94896C99.6609 8.75923 99.5977 8.44301 99.4712 8.2322C99.7452 8.26382 99.9771 8.26382 100.167 8.25328C100.304 8.24274 100.43 8.21112 100.536 8.14787C100.715 8.03193 100.778 7.75787 100.768 7.43112C100.768 6.85139 100.546 6.15571 99.7242 5.33355C100.146 4.37436 100.578 3.09896 100.82 2.37166V2.15031ZM112.436 5.51274L113.364 5.74463C112.7 7.33625 111.783 9.30733 111.003 10.5827L110.275 10.3508C111.024 9.05436 111.941 6.99896 112.436 5.51274ZM108.979 10.1084C110.908 10.0452 113.975 9.91868 116.8 9.78166L116.779 10.5406C114.017 10.6987 111.066 10.8568 109.084 10.9411L108.979 10.1084ZM114.46 7.82112L115.219 7.47328C116.178 8.58004 117.264 10.0452 117.791 11.0044L116.99 11.4365C116.494 10.4773 115.398 8.93842 114.46 7.82112ZM111.371 2.00274L112.246 2.24517C111.54 3.9422 110.433 5.5549 109.316 6.59842C109.147 6.44031 108.778 6.15571 108.557 6.02923C109.717 5.08058 110.76 3.56274 111.371 2.00274ZM115.145 1.9922C115.841 3.37301 117.169 5.03842 118.138 5.91328C117.928 6.08193 117.633 6.3876 117.474 6.58787C116.494 5.58652 115.177 3.79463 114.365 2.31896L115.145 1.9922ZM119.509 2.37166H127.456V3.13058H119.509V2.37166ZM119.572 4.23733H125.928V4.94355H119.572V4.23733ZM127.14 2.37166H127.931V10.2033C127.931 10.7514 127.825 11.0254 127.456 11.173C127.087 11.31 126.423 11.3206 125.485 11.3206C125.443 11.0781 125.327 10.6881 125.201 10.4563C125.938 10.4773 126.655 10.4773 126.877 10.4668C127.077 10.4563 127.14 10.4036 127.14 10.2033V2.37166ZM120.247 6.08193H121.016V10.2349H120.247V6.08193ZM120.879 6.08193H125.201V9.4549H120.879V8.75923H124.421V6.78815H120.879V6.08193ZM27.2356 20.5559V21.0811H24.8002V20.5559H27.2356ZM24.9273 16.2102V21.0811H24.2817V16.2102H24.9273ZM31.5044 18.4917V18.7995C31.5044 19.1653 31.4587 19.4932 31.3673 19.7831C31.2758 20.073 31.1442 20.3195 30.9724 20.5225C30.8007 20.7254 30.5945 20.8804 30.3536 20.9875C30.115 21.0945 29.8473 21.1481 29.5507 21.1481C29.2629 21.1481 28.9987 21.0945 28.7579 20.9875C28.5192 20.8804 28.3117 20.7254 28.1356 20.5225C27.9616 20.3195 27.8267 20.073 27.7308 19.7831C27.6349 19.4932 27.5869 19.1653 27.5869 18.7995V18.4917C27.5869 18.126 27.6338 17.7993 27.7274 17.5116C27.8234 17.2217 27.9583 16.9752 28.1322 16.7722C28.3062 16.567 28.5125 16.411 28.7511 16.3039C28.992 16.1969 29.2563 16.1433 29.544 16.1433C29.8406 16.1433 30.1083 16.1969 30.3469 16.3039C30.5878 16.411 30.794 16.567 30.9658 16.7722C31.1398 16.9752 31.2724 17.2217 31.3638 17.5116C31.4576 17.7993 31.5044 18.126 31.5044 18.4917ZM30.8654 18.7995V18.4851C30.8654 18.1952 30.8353 17.9387 30.7751 17.7157C30.7171 17.4926 30.6313 17.3053 30.5175 17.1536C30.4038 17.002 30.2644 16.8871 30.0993 16.809C29.9365 16.731 29.7514 16.6919 29.544 16.6919C29.3433 16.6919 29.1615 16.731 28.9987 16.809C28.8382 16.8871 28.6998 17.002 28.5839 17.1536C28.4701 17.3053 28.382 17.4926 28.3196 17.7157C28.2571 17.9387 28.2259 18.1952 28.2259 18.4851V18.7995C28.2259 19.0918 28.2571 19.3505 28.3196 19.5757C28.382 19.7987 28.4713 19.9872 28.5872 20.1411C28.7054 20.2927 28.8448 20.4076 29.0054 20.4857C29.1682 20.5637 29.35 20.6028 29.5507 20.6028C29.7604 20.6028 29.9466 20.5637 30.1093 20.4857C30.2722 20.4076 30.4093 20.2927 30.5209 20.1411C30.6346 19.9872 30.7204 19.7987 30.7784 19.5757C30.8365 19.3505 30.8654 19.0918 30.8654 18.7995ZM36.218 16.2102V21.0811H35.569L33.1168 17.3242V21.0811H32.4712V16.2102H33.1168L35.5791 19.9772V16.2102H36.218ZM40.9618 18.6557V20.4388C40.9015 20.528 40.8057 20.6284 40.6741 20.7399C40.5425 20.8491 40.3607 20.9451 40.1288 21.0276C39.899 21.1079 39.6024 21.1481 39.2389 21.1481C38.9423 21.1481 38.669 21.0968 38.4193 20.9942C38.1717 20.8893 37.9565 20.7377 37.7736 20.5392C37.5929 20.3384 37.4525 20.0953 37.3521 19.8098C37.254 19.5222 37.205 19.1966 37.205 18.833V18.455C37.205 18.0915 37.2473 17.767 37.3321 17.4815C37.419 17.1961 37.5461 16.9541 37.7135 16.7555C37.8807 16.5548 38.0859 16.4031 38.3289 16.3005C38.5721 16.1958 38.8509 16.1433 39.1653 16.1433C39.5378 16.1433 39.8489 16.208 40.0987 16.3373C40.3507 16.4644 40.5469 16.6407 40.6875 16.866C40.8302 17.0912 40.9217 17.3477 40.9618 17.6353H40.3161C40.2871 17.4592 40.2291 17.2986 40.1422 17.1536C40.0574 17.0087 39.9358 16.8927 39.7776 16.8057C39.6192 16.7165 39.4151 16.6719 39.1653 16.6719C38.94 16.6719 38.7449 16.7131 38.5799 16.7957C38.4148 16.8782 38.2788 16.9964 38.1717 17.1503C38.0647 17.3042 37.9844 17.4904 37.9309 17.7089C37.8796 17.9276 37.8539 18.1739 37.8539 18.4483V18.833C37.8539 19.114 37.8862 19.3649 37.951 19.5858C38.0178 19.8065 38.1126 19.995 38.2353 20.1511C38.3579 20.305 38.5041 20.4221 38.6735 20.5024C38.8453 20.5826 39.0349 20.6228 39.2423 20.6228C39.472 20.6228 39.6582 20.6038 39.8009 20.5659C39.9437 20.5258 40.0552 20.479 40.1355 20.4254C40.2158 20.3696 40.2771 20.3173 40.3195 20.2682V19.1776H39.1921V18.6557H40.9618ZM45.3978 16.2102V21.0811H44.7622V16.2102H45.3978ZM46.9634 16.2102V16.7388H43.1998V16.2102H46.9634ZM50.7805 20.5559V21.0811H48.2012V20.5559H50.7805ZM48.3317 16.2102V21.0811H47.686V16.2102H48.3317ZM50.4392 18.3045V18.8297H48.2012V18.3045H50.4392ZM50.747 16.2102V16.7388H48.2012V16.2102H50.747ZM53.3832 16.6418L51.7708 21.0811H51.1117L52.9683 16.2102H53.3932L53.3832 16.6418ZM54.7348 21.0811L53.1189 16.6418L53.1089 16.2102H53.5338L55.3972 21.0811H54.7348ZM54.6511 19.278V19.8065H51.9146V19.278H54.6511ZM56.2536 16.2102H56.8792L58.4749 20.1812L60.0673 16.2102H60.6962L58.7158 21.0811H58.2274L56.2536 16.2102ZM56.0495 16.2102H56.6015L56.6918 19.1809V21.0811H56.0495V16.2102ZM60.345 16.2102H60.8969V21.0811H60.2547V19.1809L60.345 16.2102ZM64.423 16.2102V21.0811H63.7773V16.2102H64.423ZM69.344 16.2102V21.0811H68.695L66.2428 17.3242V21.0811H65.5972V16.2102H66.2428L68.7051 19.9772V16.2102H69.344ZM71.8062 21.0811H70.7892L70.7959 20.5559H71.8062C72.1541 20.5559 72.4441 20.4834 72.6761 20.3384C72.908 20.1912 73.082 19.986 73.1979 19.7229C73.3162 19.4575 73.3753 19.1475 73.3753 18.7929V18.4952C73.3753 18.2164 73.3418 17.9688 73.2749 17.7524C73.2079 17.5339 73.1098 17.3499 72.9805 17.2004C72.8511 17.0488 72.6928 16.9339 72.5054 16.8559C72.3203 16.7779 72.1073 16.7388 71.8665 16.7388H70.7692V16.2102H71.8665C72.1854 16.2102 72.4764 16.2637 72.7396 16.3708C73.0028 16.4756 73.2292 16.6284 73.4188 16.8292C73.6105 17.0277 73.7577 17.2685 73.8603 17.5517C73.9629 17.8328 74.0142 18.1494 74.0142 18.5018V18.7929C74.0142 19.1453 73.9629 19.4631 73.8603 19.7463C73.7577 20.0273 73.6094 20.267 73.4154 20.4656C73.2236 20.6641 72.9916 20.8168 72.7196 20.9239C72.4497 21.0287 72.1453 21.0811 71.8062 21.0811ZM71.1338 16.2102V21.0811H70.4881V16.2102H71.1338ZM77.7711 16.2102H78.4134V19.5055C78.4134 19.8712 78.332 20.1756 78.1692 20.4187C78.0063 20.6619 77.79 20.8447 77.5202 20.9674C77.2525 21.0878 76.9615 21.1481 76.6471 21.1481C76.317 21.1481 76.0181 21.0878 75.7505 20.9674C75.4851 20.8447 75.2743 20.6619 75.1181 20.4187C74.9643 20.1756 74.8874 19.8712 74.8874 19.5055V16.2102H75.5263V19.5055C75.5263 19.7597 75.5732 19.9694 75.6669 20.1344C75.7605 20.2994 75.8909 20.4221 76.0583 20.5024C76.2277 20.5826 76.424 20.6228 76.6471 20.6228C76.8723 20.6228 77.0686 20.5826 77.2358 20.5024C77.4054 20.4221 77.5369 20.2994 77.6306 20.1344C77.7242 19.9694 77.7711 19.7597 77.7711 19.5055V16.2102ZM82.0231 19.85C82.0231 19.7362 82.0053 19.6359 81.9695 19.549C81.9361 19.4597 81.8759 19.3794 81.7889 19.308C81.7041 19.2367 81.5859 19.1687 81.4343 19.104C81.2849 19.0393 81.0953 18.9735 80.8656 18.9066C80.6247 18.8353 80.4072 18.7561 80.2132 18.6691C80.0192 18.5798 79.8531 18.4784 79.7148 18.3646C79.5764 18.2509 79.4705 18.1205 79.3969 17.9732C79.3233 17.826 79.2866 17.6576 79.2866 17.4681C79.2866 17.2785 79.3256 17.1035 79.4037 16.9429C79.4817 16.7823 79.5932 16.6429 79.7382 16.5247C79.8854 16.4043 80.0604 16.3106 80.2634 16.2437C80.4663 16.1768 80.6927 16.1433 80.9425 16.1433C81.3083 16.1433 81.6182 16.2136 81.8725 16.3541C82.129 16.4924 82.3242 16.6741 82.458 16.8994C82.5917 17.1224 82.6587 17.361 82.6587 17.6153H82.0164C82.0164 17.4324 81.9773 17.2707 81.8993 17.1303C81.8212 16.9875 81.703 16.876 81.5447 16.7957C81.3863 16.7131 81.1856 16.6719 80.9425 16.6719C80.7128 16.6719 80.5233 16.7064 80.3737 16.7756C80.2243 16.8448 80.1129 16.9384 80.0393 17.0567C79.9679 17.1748 79.9322 17.3097 79.9322 17.4614C79.9322 17.564 79.9534 17.6576 79.9958 17.7424C80.0404 17.825 80.1084 17.9019 80.1998 17.9732C80.2935 18.0447 80.4117 18.1104 80.5544 18.1706C80.6994 18.2309 80.8722 18.2888 81.0729 18.3446C81.3495 18.4226 81.5882 18.5097 81.7889 18.6055C81.9896 18.7014 82.1547 18.8096 82.284 18.9301C82.4156 19.0482 82.5126 19.1832 82.5751 19.3348C82.6397 19.4842 82.672 19.6538 82.672 19.8433C82.672 20.0418 82.6319 20.2214 82.5516 20.3819C82.4713 20.5425 82.3565 20.6797 82.2071 20.7934C82.0576 20.9072 81.8781 20.9952 81.6685 21.0577C81.461 21.1179 81.2291 21.1481 80.9726 21.1481C80.7473 21.1481 80.5254 21.1168 80.3069 21.0543C80.0906 20.9919 79.8932 20.8982 79.7148 20.7733C79.5386 20.6484 79.3969 20.4945 79.2899 20.3117C79.185 20.1266 79.1327 19.9124 79.1327 19.6694H79.775C79.775 19.8366 79.8073 19.9805 79.872 20.1009C79.9367 20.2192 80.0248 20.3173 80.1362 20.3953C80.25 20.4734 80.3782 20.5313 80.521 20.5693C80.666 20.6049 80.8165 20.6228 80.9726 20.6228C81.1978 20.6228 81.3885 20.5916 81.5447 20.5291C81.7008 20.4667 81.819 20.3774 81.8993 20.2615C81.9818 20.1456 82.0231 20.0084 82.0231 19.85ZM85.2949 16.2102V21.0811H84.6593V16.2102H85.2949ZM86.8605 16.2102V16.7388H83.0969V16.2102H86.8605ZM87.5831 16.2102H89.1959C89.5613 16.2102 89.8705 16.266 90.1226 16.3775C90.3765 16.489 90.5697 16.6541 90.7006 16.8726C90.835 17.089 90.9017 17.3555 90.9017 17.6721C90.9017 17.8952 90.8561 18.0993 90.7647 18.2844C90.6751 18.4672 90.546 18.6234 90.3765 18.7527C90.2096 18.8798 90.0084 18.9747 89.7739 19.037L89.5938 19.1073H88.0786L88.0716 18.5821H89.2152C89.448 18.5821 89.6404 18.542 89.7941 18.4617C89.9487 18.3791 90.0646 18.2687 90.1419 18.1305C90.2201 17.9922 90.2596 17.8395 90.2596 17.6721C90.2596 17.4849 90.2227 17.3209 90.149 17.1804C90.0752 17.0399 89.9592 16.9317 89.8011 16.8559C89.6448 16.7779 89.4427 16.7388 89.1959 16.7388H88.2288V21.0811H87.5831V16.2102ZM90.43 21.0811L89.246 18.8731L89.9179 18.8698L91.1196 21.041V21.0811H90.43ZM92.4977 16.2102V21.0811H91.8521V16.2102H92.4977ZM95.5352 16.6418L93.9225 21.0811H93.2637L95.1206 16.2102H95.5448L95.5352 16.6418ZM96.887 21.0811L95.2708 16.6418L95.2611 16.2102H95.6854L97.5493 21.0811H96.887ZM96.8027 19.278V19.8065H94.0665V19.278H96.8027ZM101.155 20.5559V21.0811H98.7202V20.5559H101.155ZM98.8467 16.2102V21.0811H98.2011V16.2102H98.8467ZM106.535 19.5322H107.177C107.144 19.84 107.055 20.1154 106.913 20.3585C106.77 20.6016 106.568 20.7945 106.308 20.9372C106.046 21.0778 105.721 21.1481 105.33 21.1481C105.045 21.1481 104.785 21.0945 104.551 20.9875C104.319 20.8804 104.12 20.7287 103.952 20.5325C103.785 20.334 103.656 20.0965 103.564 19.8199C103.475 19.5411 103.43 19.2311 103.43 18.8899V18.4048C103.43 18.0635 103.475 17.7547 103.564 17.4781C103.656 17.1994 103.786 16.9607 103.955 16.7622C104.127 16.5637 104.333 16.411 104.575 16.3039C104.815 16.1969 105.086 16.1433 105.387 16.1433C105.755 16.1433 106.066 16.2124 106.321 16.3507C106.575 16.489 106.772 16.6808 106.913 16.9261C107.055 17.1693 107.144 17.4514 107.177 17.7725H106.535C106.503 17.545 106.446 17.3499 106.361 17.1871C106.276 17.022 106.156 16.8949 105.999 16.8057C105.843 16.7165 105.639 16.6719 105.387 16.6719C105.171 16.6719 104.98 16.7131 104.815 16.7957C104.653 16.8782 104.515 16.9953 104.403 17.1469C104.294 17.2986 104.212 17.4804 104.156 17.6922C104.1 17.9041 104.072 18.1394 104.072 18.3981V18.8899C104.072 19.1286 104.097 19.3526 104.146 19.5623C104.198 19.772 104.274 19.9559 104.377 20.1143C104.48 20.2727 104.61 20.3976 104.769 20.489C104.927 20.5782 105.114 20.6228 105.33 20.6228C105.605 20.6228 105.824 20.5793 105.986 20.4923C106.149 20.4054 106.272 20.2805 106.354 20.1176C106.438 19.9549 106.499 19.7597 106.535 19.5322ZM111.807 18.4917V18.7995C111.807 19.1653 111.761 19.4932 111.67 19.7831C111.579 20.073 111.447 20.3195 111.275 20.5225C111.104 20.7254 110.897 20.8804 110.656 20.9875C110.418 21.0945 110.15 21.1481 109.854 21.1481C109.566 21.1481 109.301 21.0945 109.06 20.9875C108.822 20.8804 108.614 20.7254 108.439 20.5225C108.265 20.3195 108.129 20.073 108.034 19.7831C107.938 19.4932 107.89 19.1653 107.89 18.7995V18.4917C107.89 18.126 107.936 17.7993 108.03 17.5116C108.126 17.2217 108.261 16.9752 108.435 16.7722C108.609 16.567 108.815 16.411 109.053 16.3039C109.295 16.1969 109.559 16.1433 109.847 16.1433C110.143 16.1433 110.411 16.1969 110.649 16.3039C110.89 16.411 111.097 16.567 111.269 16.7722C111.443 16.9752 111.575 17.2217 111.667 17.5116C111.761 17.7993 111.807 18.126 111.807 18.4917ZM111.168 18.7995V18.4851C111.168 18.1952 111.138 17.9387 111.078 17.7157C111.02 17.4926 110.934 17.3053 110.82 17.1536C110.707 17.002 110.567 16.8871 110.402 16.809C110.239 16.731 110.054 16.6919 109.847 16.6919C109.646 16.6919 109.465 16.731 109.301 16.809C109.14 16.8871 109.002 17.002 108.887 17.1536C108.773 17.3053 108.685 17.4926 108.622 17.7157C108.56 17.9387 108.528 18.1952 108.528 18.4851V18.7995C108.528 19.0918 108.56 19.3505 108.622 19.5757C108.685 19.7987 108.774 19.9872 108.89 20.1411C109.008 20.2927 109.147 20.4076 109.308 20.4857C109.471 20.5637 109.652 20.6028 109.854 20.6028C110.063 20.6028 110.249 20.5637 110.412 20.4857C110.575 20.4076 110.712 20.2927 110.823 20.1411C110.938 19.9872 111.023 19.7987 111.081 19.5757C111.139 19.3505 111.168 19.0918 111.168 18.7995ZM112.349 20.7533C112.349 20.6484 112.382 20.5603 112.446 20.489C112.513 20.4154 112.609 20.3786 112.734 20.3786C112.859 20.3786 112.953 20.4154 113.018 20.489C113.085 20.5603 113.119 20.6484 113.119 20.7533C113.119 20.8559 113.085 20.9429 113.018 21.0142C112.953 21.0856 112.859 21.1213 112.734 21.1213C112.609 21.1213 112.513 21.0856 112.446 21.0142C112.382 20.9429 112.349 20.8559 112.349 20.7533ZM114.708 20.3451V20.8436C114.708 21.0465 114.657 21.2607 114.554 21.4859C114.451 21.7134 114.307 21.9029 114.122 22.0546L113.771 21.8104C113.842 21.7123 113.902 21.6119 113.951 21.5093C114 21.4089 114.037 21.3041 114.062 21.1949C114.088 21.0878 114.102 20.974 114.102 20.8536V20.3451H114.708ZM120.244 20.5559V21.0811H117.809V20.5559H120.244ZM117.936 16.2102V21.0811H117.29V16.2102H117.936ZM121.86 16.2102V21.0811H121.224V16.2102H121.86ZM123.425 16.2102V16.7388H119.662V16.2102H123.425ZM125.466 21.0811H124.45L124.456 20.5559H125.466C125.814 20.5559 126.104 20.4834 126.336 20.3384C126.568 20.1912 126.742 19.986 126.858 19.7229C126.976 19.4575 127.036 19.1475 127.036 18.7929V18.4952C127.036 18.2164 127.002 17.9688 126.935 17.7524C126.868 17.5339 126.769 17.3499 126.64 17.2004C126.511 17.0488 126.353 16.9339 126.165 16.8559C125.981 16.7779 125.767 16.7388 125.527 16.7388H124.429V16.2102H125.527C125.845 16.2102 126.136 16.2637 126.4 16.3708C126.663 16.4756 126.889 16.6284 127.079 16.8292C127.27 17.0277 127.418 17.2685 127.52 17.5517C127.623 17.8328 127.674 18.1494 127.674 18.5018V18.7929C127.674 19.1453 127.623 19.4631 127.52 19.7463C127.418 20.0273 127.269 20.267 127.075 20.4656C126.884 20.6641 126.652 20.8168 126.379 20.9239C126.11 21.0287 125.805 21.0811 125.466 21.0811ZM124.794 16.2102V21.0811H124.148V16.2102H124.794Z" fill="#E1E7F5"/>
</svg>
