<svg width="21" height="23" viewBox="0 0 21 23" fill="none" xmlns="http://www.w3.org/2000/svg">
<path fill-rule="evenodd" clip-rule="evenodd" d="M0 0H19.3421C20.2609 0 21 0.739145 21 1.65789V20.4474C21 21.3661 20.2609 22.1053 19.3421 22.1053H0V0ZM16.8553 9.11842C17.3112 9.11842 17.6842 8.74539 17.6842 8.28947V7.18421C17.6842 6.72829 17.3112 6.35526 16.8553 6.35526H12.4342V5.25C12.4342 4.79408 12.0612 4.42105 11.6053 4.42105H10.5C10.0441 4.42105 9.67105 4.79408 9.67105 5.25V6.35526H5.25C4.79408 6.35526 4.42105 6.72829 4.42105 7.18421V8.28947C4.42105 8.74539 4.79408 9.11842 5.25 9.11842H13.1457C12.7174 10.1062 12.0059 11.1217 11.0734 12.1026C10.6174 11.626 10.2168 11.1424 9.87138 10.6589C9.6227 10.3066 9.13914 10.203 8.76612 10.424L8.26184 10.7211L7.81283 10.9905C7.40526 11.2322 7.28092 11.778 7.55724 12.1717C7.97862 12.7727 8.46217 13.3668 9.00789 13.947C8.44835 14.3822 7.84737 14.7967 7.20493 15.1905C6.81809 15.4253 6.69375 15.9227 6.9148 16.3095L7.46053 17.2697C7.69539 17.6773 8.21349 17.8086 8.61415 17.5668C9.49145 17.028 10.3066 16.4477 11.0595 15.8467C11.8125 16.4546 12.6345 17.028 13.5049 17.5668C13.9056 17.8086 14.4237 17.6773 14.6586 17.2697L15.2043 16.3095C15.4253 15.9158 15.301 15.4253 14.9211 15.1905C14.2993 14.8105 13.6984 14.3891 13.1181 13.947C14.5688 12.3928 15.5911 10.7487 16.0678 9.11842H16.8553Z" fill="#E0E7F5"/>
</svg>
