<svg id="svg" version="1.1" xmlns="http://www.w3.org/2000/svg" xmlns:xlink="http://www.w3.org/1999/xlink" width="400" height="475.6756756756757" viewBox="0, 0, 400,475.6756756756757">
    <g id="svgg">
        <path id="path0" d="M0.000 237.800 L 0.000 475.600 84.600 475.600 L 169.200 475.600 169.204 474.700 C 169.207 474.205,169.463 472.961,169.774 471.936 L 170.340 470.072 169.270 469.648 C 168.607 469.385,162.797 469.181,154.000 469.112 L 139.800 469.000 137.116 467.472 C 133.847 465.611,130.471 459.200,132.760 459.200 C 132.958 459.200,133.414 457.876,133.774 456.258 C 134.137 454.628,134.868 452.721,135.414 451.981 C 135.956 451.246,136.400 450.473,136.400 450.263 C 136.400 450.054,137.033 449.110,137.806 448.167 C 139.170 446.502,139.194 446.412,138.639 445.126 C 134.489 435.510,134.621 426.702,138.994 421.491 C 142.550 417.254,145.091 415.200,146.778 415.200 C 147.355 415.200,148.852 414.840,150.104 414.400 C 153.309 413.274,159.316 413.291,163.028 414.438 C 166.754 415.589,167.985 415.229,168.682 412.789 C 169.582 409.638,171.478 408.794,173.325 410.722 C 174.696 412.153,174.676 412.624,173.111 415.799 L 171.822 418.413 172.890 419.403 C 177.636 423.804,179.123 435.307,175.857 442.356 C 174.692 444.870,170.672 449.445,169.332 449.781 C 168.759 449.925,167.714 450.482,167.010 451.020 C 166.305 451.557,165.160 452.195,164.464 452.437 C 161.737 453.388,162.742 454.598,166.781 455.224 C 171.769 455.998,172.743 456.719,175.520 461.694 C 177.613 465.445,177.264 470.742,174.746 473.419 C 174.116 474.090,173.600 474.855,173.600 475.119 C 173.600 475.493,198.897 475.600,286.800 475.600 L 400.000 475.600 400.000 237.800 L 400.000 0.000 200.000 0.000 L 0.000 0.000 0.000 237.800 M23.752 7.437 C 24.724 7.810,23.692 9.135,17.816 15.058 C 14.947 17.950,11.448 21.518,10.039 22.987 L 7.479 25.657 6.639 24.818 C 5.316 23.497,5.124 9.913,6.405 8.284 L 7.258 7.200 15.196 7.200 C 19.562 7.200,23.413 7.307,23.752 7.437 M62.508 7.420 C 62.868 7.558,63.013 8.000,62.896 8.609 C 62.717 9.547,7.930 64.800,7.180 64.800 C 5.645 64.800,4.750 48.079,6.036 43.444 C 6.510 41.740,38.371 9.367,40.943 7.977 C 42.195 7.301,60.935 6.816,62.508 7.420 M101.522 8.660 C 101.650 9.974,8.833 103.600,7.403 103.600 C 5.672 103.600,4.532 85.582,6.052 82.246 C 6.453 81.365,77.516 10.043,80.000 8.029 C 80.953 7.256,81.477 7.223,91.200 7.309 L 101.400 7.400 101.522 8.660 M140.327 8.508 C 140.584 10.738,135.891 15.872,134.587 14.789 C 133.750 14.094,133.785 9.285,134.635 8.071 C 135.678 6.583,140.146 6.926,140.327 8.508 M181.200 8.309 C 181.200 9.240,177.671 12.945,159.100 31.507 C 135.341 55.254,135.477 55.128,134.583 54.386 C 133.904 53.822,133.705 33.699,134.366 32.464 C 134.567 32.088,139.659 26.835,145.682 20.790 C 151.704 14.746,157.042 9.215,157.543 8.500 L 158.454 7.200 169.827 7.200 L 181.200 7.200 181.200 8.309 M220.000 8.053 C 220.000 8.522,219.645 9.467,219.211 10.153 C 217.982 12.095,135.835 94.000,135.117 94.000 C 133.981 94.000,133.796 91.978,134.000 81.795 L 134.200 71.791 165.600 40.348 C 182.870 23.055,197.630 8.522,198.400 8.054 C 200.587 6.724,220.000 6.723,220.000 8.053 M258.800 8.106 C 258.800 8.604,258.456 9.639,258.037 10.406 C 257.207 11.920,154.954 114.475,153.491 115.259 C 151.947 116.087,135.137 115.793,134.500 114.927 C 133.325 113.330,133.869 111.707,136.526 108.884 C 141.281 103.831,237.148 8.069,237.875 7.646 C 238.330 7.382,242.366 7.220,248.700 7.212 L 258.800 7.200 258.800 8.106 M299.772 7.555 C 299.893 7.750,299.723 8.132,299.396 8.404 C 299.068 8.676,298.800 9.047,298.800 9.229 C 298.800 9.655,216.527 92.297,201.321 107.144 C 191.839 116.403,193.741 115.577,181.626 115.699 L 171.599 115.800 171.600 114.691 C 171.600 113.646,173.396 110.400,173.974 110.400 C 174.439 110.400,221.616 62.771,223.247 60.655 C 223.732 60.025,224.685 59.172,225.365 58.759 C 227.244 57.618,275.600 9.245,275.600 8.506 C 275.600 7.340,299.069 6.417,299.772 7.555 M338.507 7.440 C 339.236 8.169,335.665 12.006,313.042 34.800 C 226.545 121.951,207.417 140.613,207.172 138.086 C 206.714 133.338,207.042 117.979,207.627 116.800 C 208.641 114.758,314.140 9.332,316.360 8.143 C 318.077 7.223,337.668 6.601,338.507 7.440 M377.326 7.500 C 378.134 8.903,375.442 11.824,348.704 38.559 C 333.687 53.575,318.577 68.817,315.127 72.430 C 308.126 79.762,273.286 114.524,268.010 119.440 C 266.145 121.178,252.068 135.155,236.727 150.500 C 221.386 165.845,208.657 178.400,208.440 178.400 C 206.942 178.400,206.209 159.073,207.604 156.353 C 207.873 155.829,216.892 146.574,227.646 135.787 C 238.401 124.999,247.202 115.999,247.203 115.787 C 247.208 115.309,244.754 117.777,277.413 85.400 C 292.503 70.440,316.264 46.864,330.216 33.008 C 344.167 19.153,355.901 7.691,356.291 7.537 C 357.252 7.157,377.108 7.122,377.326 7.500 M114.030 15.700 C 114.046 15.975,114.052 20.655,114.042 26.100 L 114.026 35.999 112.448 38.100 C 110.697 40.430,8.005 143.200,7.427 143.200 C 5.636 143.200,4.599 127.420,6.047 122.205 C 6.699 119.859,111.210 15.198,112.900 15.199 C 113.505 15.200,114.013 15.425,114.030 15.700 M387.902 65.821 L 388.003 113.745 387.132 114.672 L 386.261 115.600 351.712 115.600 L 317.164 115.600 316.182 116.582 L 315.200 117.564 315.200 190.353 L 315.200 263.142 314.146 263.971 L 313.092 264.800 260.808 264.800 C 210.563 264.800,208.498 264.771,207.858 264.065 C 206.830 262.928,206.762 196.929,207.788 195.363 C 208.157 194.799,226.041 176.700,247.530 155.144 C 269.018 133.588,292.818 109.707,300.418 102.076 C 363.837 38.392,385.978 16.688,386.899 17.300 L 387.800 17.898 387.902 65.821 M114.094 65.673 C 114.047 71.642,113.961 76.579,113.904 76.644 C 110.638 80.371,7.248 183.151,6.899 183.017 C 5.334 182.416,4.989 162.546,6.507 160.401 C 7.728 158.675,111.759 54.737,112.600 54.402 C 114.089 53.809,114.183 54.515,114.094 65.673 M114.065 103.662 C 114.055 109.018,114.036 113.925,114.023 114.567 C 113.999 115.768,8.493 221.999,7.323 222.000 C 5.821 222.001,5.600 220.506,5.600 210.328 L 5.600 200.434 58.757 147.261 C 87.993 118.016,112.248 93.899,112.657 93.669 C 113.968 92.929,114.084 93.751,114.065 103.662 M113.829 133.647 C 113.981 133.893,114.090 138.661,114.071 144.243 L 114.037 154.391 112.111 156.695 C 111.052 157.963,87.079 182.087,58.838 210.303 C 5.004 264.090,7.226 261.996,5.906 260.200 C 5.405 259.518,5.549 242.062,6.071 240.321 C 6.568 238.661,110.744 133.883,112.304 133.475 C 113.457 133.173,113.542 133.183,113.829 133.647 M113.956 173.300 C 114.639 175.128,114.111 193.571,113.342 194.745 C 112.963 195.325,89.351 219.110,60.873 247.600 C 32.394 276.090,8.827 299.805,8.501 300.300 C 7.804 301.358,7.099 301.442,6.229 300.571 C 5.459 299.802,5.300 282.524,6.038 279.800 C 6.413 278.413,13.377 271.289,58.436 226.200 C 87.017 197.600,110.626 173.900,110.901 173.534 C 111.331 172.960,112.050 172.635,113.310 172.446 C 113.480 172.421,113.771 172.805,113.956 173.300 M113.831 212.050 C 114.462 213.071,114.108 233.110,113.442 234.080 C 113.095 234.586,89.119 258.711,60.164 287.692 C 4.045 343.858,6.506 341.554,5.772 338.631 C 5.281 336.676,5.772 319.052,6.346 318.000 C 6.646 317.450,30.178 293.690,58.638 265.200 C 87.098 236.710,110.612 213.100,110.892 212.734 C 111.326 212.164,111.988 211.863,113.276 211.646 C 113.428 211.621,113.678 211.803,113.831 212.050 M114.085 262.123 L 114.125 272.360 112.981 273.880 C 111.182 276.271,8.692 378.779,7.825 379.055 C 7.300 379.222,6.815 379.012,6.325 378.406 C 5.495 377.382,5.229 361.143,5.996 358.400 C 6.447 356.790,111.150 251.797,112.600 251.501 C 113.984 251.219,114.045 251.655,114.085 262.123 M387.074 282.470 L 388.000 283.339 388.000 335.744 L 388.000 388.148 387.130 389.074 L 386.261 390.000 201.510 390.000 C 36.688 390.000,16.633 389.934,15.580 389.390 C 14.181 388.666,14.064 387.808,15.277 387.159 C 15.759 386.901,39.466 363.359,67.958 334.845 C 96.450 306.330,120.220 282.686,120.781 282.303 C 121.745 281.643,128.943 281.605,253.974 281.603 L 386.148 281.600 387.074 282.470 M26.618 401.782 L 27.600 402.764 27.600 428.050 C 27.600 451.019,27.661 453.404,28.262 454.069 C 28.853 454.721,29.640 454.800,35.598 454.800 L 42.272 454.800 42.736 455.819 C 43.459 457.406,43.306 459.494,42.400 460.400 C 41.115 461.685,8.127 461.646,6.962 460.358 C 5.867 459.149,5.570 404.427,6.646 402.161 L 7.291 400.800 16.464 400.800 L 25.636 400.800 26.618 401.782 M245.442 401.806 C 248.123 404.487,246.115 406.785,241.082 406.794 C 238.309 406.799,237.855 406.909,236.982 407.782 L 236.000 408.764 236.000 434.050 C 236.000 457.019,235.939 459.404,235.338 460.069 C 234.278 461.240,217.580 461.180,216.400 460.000 C 215.617 459.217,215.600 458.667,215.600 433.649 C 215.600 403.972,216.213 407.116,210.357 406.764 C 205.651 406.481,205.026 406.115,205.333 403.821 C 205.755 400.675,204.905 400.800,225.862 400.800 L 244.436 400.800 245.442 401.806 M72.307 412.747 C 74.234 413.171,75.988 413.814,76.507 414.287 C 76.998 414.734,77.803 415.308,78.296 415.562 C 78.789 415.816,79.491 416.603,79.857 417.312 C 80.223 418.020,81.304 419.562,82.261 420.737 C 83.217 421.912,84.000 423.067,84.000 423.305 C 84.000 423.542,84.525 424.921,85.167 426.368 C 90.155 437.617,86.654 454.190,78.228 459.214 C 77.113 459.879,75.577 460.817,74.815 461.298 C 68.242 465.450,56.021 462.769,51.261 456.132 C 45.538 448.152,43.926 437.699,47.107 429.197 C 48.742 424.829,52.266 418.100,53.174 417.614 C 53.605 417.383,54.768 416.493,55.758 415.636 C 59.446 412.444,65.851 411.326,72.307 412.747 M274.036 412.837 C 278.528 413.421,281.628 415.377,284.283 419.300 C 285.064 420.455,286.160 421.891,286.718 422.491 C 287.321 423.140,287.940 424.516,288.246 425.891 C 288.529 427.161,288.945 428.920,289.171 429.800 C 289.997 433.026,289.717 438.220,288.649 439.461 L 287.698 440.567 277.646 440.600 C 265.283 440.641,266.229 440.123,266.125 446.914 C 266.001 454.879,266.863 456.223,272.024 456.125 C 276.414 456.041,278.262 454.910,282.912 449.459 C 284.950 447.069,288.400 446.774,288.400 448.989 C 288.400 451.347,282.073 459.786,279.134 461.349 C 272.912 464.657,263.055 463.279,258.735 458.496 C 257.955 457.633,256.900 456.636,256.391 456.279 C 254.134 454.698,252.014 452.261,251.359 450.493 C 250.973 449.452,250.351 448.150,249.977 447.600 C 246.827 442.963,248.531 429.624,253.187 422.485 C 255.388 419.110,256.139 418.361,261.375 414.321 C 263.469 412.706,268.495 412.117,274.036 412.837 M323.808 414.221 C 327.328 415.887,330.176 418.895,331.014 421.836 C 332.305 426.362,333.522 425.091,333.946 418.775 C 334.303 413.454,334.087 413.600,341.614 413.600 C 346.968 413.600,347.539 413.669,348.200 414.400 C 349.127 415.424,349.416 415.408,351.685 414.200 C 353.272 413.355,354.100 413.200,357.021 413.200 L 360.479 413.200 363.587 415.542 L 366.694 417.883 367.647 417.128 C 368.171 416.713,369.320 415.993,370.200 415.529 C 371.080 415.065,372.035 414.351,372.323 413.942 C 373.311 412.538,379.655 412.906,382.366 414.524 C 387.731 417.726,388.000 419.014,388.000 441.488 C 388.000 463.097,388.867 460.800,380.709 460.800 C 372.601 460.800,373.452 462.765,373.364 443.847 C 373.251 419.679,373.398 422.147,372.038 421.673 C 371.051 421.329,370.759 421.399,370.100 422.134 C 367.882 424.612,367.985 423.625,368.009 442.079 C 368.035 462.967,368.851 460.800,360.966 460.800 C 352.514 460.800,353.400 463.122,353.400 440.968 L 353.400 422.824 352.510 421.933 L 351.620 421.042 350.572 422.021 C 348.368 424.080,348.400 423.781,348.400 442.531 C 348.400 457.005,348.306 459.980,347.835 460.371 C 347.235 460.869,336.577 460.745,333.347 460.203 C 332.293 460.026,331.596 460.084,331.423 460.362 C 330.976 461.085,319.023 460.950,318.413 460.215 C 317.453 459.059,316.462 459.163,312.990 460.782 C 308.561 462.847,304.849 463.047,301.588 461.394 C 286.657 453.828,288.774 432.407,304.633 430.591 C 309.396 430.045,312.585 430.327,314.831 431.492 C 317.433 432.842,317.558 432.660,317.673 427.370 C 317.828 420.194,316.035 418.049,310.281 418.527 C 304.498 419.008,302.515 420.385,301.187 424.843 C 300.236 428.038,299.141 428.685,296.625 427.539 C 292.002 425.432,299.108 414.693,306.118 413.192 C 310.056 412.349,321.224 412.998,323.808 414.221 M124.351 414.460 C 130.807 418.076,130.588 417.178,130.661 440.316 L 130.723 459.632 129.859 460.198 C 128.447 461.123,117.802 461.107,116.775 460.178 C 116.029 459.502,116.000 458.764,116.000 440.167 L 116.000 420.858 114.900 419.990 C 112.653 418.216,107.280 420.039,105.419 423.205 C 104.629 424.550,104.599 425.215,104.567 441.894 C 104.537 458.043,104.487 459.241,103.805 459.994 C 102.795 461.110,91.938 461.230,90.731 460.138 C 89.539 459.059,89.604 415.596,90.800 414.400 C 92.154 413.046,102.409 413.200,104.073 414.600 C 104.727 415.150,105.563 415.600,105.931 415.600 C 107.153 415.600,111.779 414.490,113.200 413.856 C 115.894 412.654,121.688 412.968,124.351 414.460 M65.062 418.731 C 64.467 419.389,64.400 421.265,64.400 437.322 L 64.400 455.182 65.461 455.876 C 68.081 457.594,72.827 456.159,76.867 452.429 C 82.495 447.232,83.207 431.284,78.115 424.450 C 74.493 419.589,67.184 416.387,65.062 418.731 M268.300 419.162 L 266.400 420.382 266.400 426.942 C 266.400 434.770,266.301 434.593,270.671 434.555 C 274.876 434.518,274.966 434.390,275.142 428.162 C 275.421 418.308,273.520 415.808,268.300 419.162 M153.200 419.716 C 151.433 420.608,151.235 422.117,151.359 433.707 L 151.474 444.414 152.767 446.214 C 155.716 450.320,161.180 449.731,162.407 445.174 C 163.060 442.751,162.850 423.310,162.156 421.939 C 160.935 419.525,156.004 418.301,153.200 419.716 M309.855 437.243 C 309.164 438.229,308.893 448.290,309.464 451.745 C 309.988 454.915,313.775 455.133,316.231 452.136 L 317.680 450.368 317.680 445.425 C 317.680 439.475,317.601 439.187,315.597 437.798 C 313.363 436.250,310.729 435.995,309.855 437.243 M142.429 451.054 C 140.586 453.397,142.118 455.200,145.952 455.200 C 151.018 455.200,151.408 453.658,146.888 451.492 C 143.182 449.715,143.461 449.742,142.429 451.054 " stroke="none" fill="#ffffff" fill-rule="evenodd"></path><path id="path1" d="M6.405 8.284 C 5.124 9.913,5.316 23.497,6.639 24.818 L 7.479 25.657 10.039 22.987 C 11.448 21.518,14.947 17.950,17.816 15.058 C 26.134 6.673,26.310 7.200,15.196 7.200 L 7.258 7.200 6.405 8.284 M40.943 7.977 C 38.371 9.367,6.510 41.740,6.036 43.444 C 4.750 48.079,5.645 64.800,7.180 64.800 C 7.930 64.800,62.717 9.547,62.896 8.609 C 63.163 7.215,62.998 7.195,52.067 7.249 C 43.606 7.291,42.021 7.395,40.943 7.977 M80.000 8.029 C 77.516 10.043,6.453 81.365,6.052 82.246 C 4.532 85.582,5.672 103.600,7.403 103.600 C 8.833 103.600,101.650 9.974,101.522 8.660 L 101.400 7.400 91.200 7.309 C 81.477 7.223,80.953 7.256,80.000 8.029 M134.635 8.071 C 133.785 9.285,133.750 14.094,134.587 14.789 C 135.891 15.872,140.584 10.738,140.327 8.508 C 140.146 6.926,135.678 6.583,134.635 8.071 M157.543 8.500 C 157.042 9.215,151.704 14.746,145.682 20.790 C 139.659 26.835,134.567 32.088,134.366 32.464 C 133.705 33.699,133.904 53.822,134.583 54.386 C 135.477 55.128,135.341 55.254,159.100 31.507 C 177.671 12.945,181.200 9.240,181.200 8.309 L 181.200 7.200 169.827 7.200 L 158.454 7.200 157.543 8.500 M198.400 8.054 C 197.630 8.522,182.870 23.055,165.600 40.348 L 134.200 71.791 134.000 81.795 C 133.796 91.978,133.981 94.000,135.117 94.000 C 135.835 94.000,217.982 12.095,219.211 10.153 C 221.106 7.158,221.238 7.200,209.900 7.201 C 200.304 7.203,199.730 7.245,198.400 8.054 M237.875 7.646 C 237.148 8.069,141.281 103.831,136.526 108.884 C 133.869 111.707,133.325 113.330,134.500 114.927 C 135.137 115.793,151.947 116.087,153.491 115.259 C 154.954 114.475,257.207 11.920,258.037 10.406 C 258.456 9.639,258.800 8.604,258.800 8.106 L 258.800 7.200 248.700 7.212 C 242.366 7.220,238.330 7.382,237.875 7.646 M276.500 7.688 C 276.005 7.927,275.600 8.295,275.600 8.506 C 275.600 9.245,227.244 57.618,225.365 58.759 C 224.685 59.172,223.732 60.025,223.247 60.655 C 221.616 62.771,174.439 110.400,173.974 110.400 C 173.396 110.400,171.600 113.646,171.600 114.691 L 171.599 115.800 181.626 115.699 C 193.741 115.577,191.839 116.403,201.321 107.144 C 216.527 92.297,298.800 9.655,298.800 9.229 C 298.800 9.047,299.068 8.676,299.396 8.404 C 299.723 8.132,299.893 7.750,299.772 7.555 C 299.448 7.031,277.603 7.156,276.500 7.688 M316.360 8.143 C 314.140 9.332,208.641 114.758,207.627 116.800 C 207.042 117.979,206.714 133.338,207.172 138.086 C 207.417 140.613,226.545 121.951,313.042 34.800 C 335.665 12.006,339.236 8.169,338.507 7.440 C 337.668 6.601,318.077 7.223,316.360 8.143 M356.291 7.537 C 355.901 7.691,344.167 19.153,330.216 33.008 C 316.264 46.864,292.503 70.440,277.413 85.400 C 244.754 117.777,247.208 115.309,247.203 115.787 C 247.202 115.999,238.401 124.999,227.646 135.787 C 216.892 146.574,207.873 155.829,207.604 156.353 C 206.209 159.073,206.942 178.400,208.440 178.400 C 208.657 178.400,221.386 165.845,236.727 150.500 C 252.068 135.155,266.145 121.178,268.010 119.440 C 273.286 114.524,308.126 79.762,315.127 72.430 C 318.577 68.817,333.687 53.575,348.704 38.559 C 375.442 11.824,378.134 8.903,377.326 7.500 C 377.108 7.122,357.252 7.157,356.291 7.537 M59.145 67.904 C 13.802 113.290,6.429 120.831,6.047 122.205 C 4.599 127.420,5.636 143.200,7.427 143.200 C 8.005 143.200,110.697 40.430,112.448 38.100 L 114.026 35.999 114.042 26.100 C 114.052 20.655,114.046 15.975,114.030 15.700 C 113.880 13.162,112.965 14.032,59.145 67.904 M350.117 52.451 C 330.382 72.113,308.018 94.444,300.418 102.076 C 292.818 109.707,269.018 133.588,247.530 155.144 C 226.041 176.700,208.157 194.799,207.788 195.363 C 206.762 196.929,206.830 262.928,207.858 264.065 C 208.498 264.771,210.563 264.800,260.808 264.800 L 313.092 264.800 314.146 263.971 L 315.200 263.142 315.200 190.353 L 315.200 117.564 316.182 116.582 L 317.164 115.600 351.712 115.600 L 386.261 115.600 387.132 114.672 L 388.003 113.745 387.902 65.821 L 387.800 17.898 386.899 17.300 C 386.021 16.716,385.130 17.567,350.117 52.451 M112.600 54.402 C 111.759 54.737,7.728 158.675,6.507 160.401 C 4.989 162.546,5.334 182.416,6.899 183.017 C 7.248 183.151,110.638 80.371,113.904 76.644 C 114.234 76.268,114.124 54.767,113.790 54.452 C 113.576 54.249,113.040 54.227,112.600 54.402 M112.657 93.669 C 112.248 93.899,87.993 118.016,58.757 147.261 L 5.600 200.434 5.600 210.328 C 5.600 220.506,5.821 222.001,7.323 222.000 C 8.493 221.999,113.999 115.768,114.023 114.567 C 114.181 106.753,114.007 93.848,113.742 93.587 C 113.554 93.401,113.066 93.438,112.657 93.669 M112.304 133.475 C 110.744 133.883,6.568 238.661,6.071 240.321 C 5.549 242.062,5.405 259.518,5.906 260.200 C 7.226 261.996,5.004 264.090,58.838 210.303 C 87.079 182.087,111.052 157.963,112.111 156.695 L 114.037 154.391 114.071 144.243 C 114.090 138.661,113.981 133.893,113.829 133.647 C 113.542 133.183,113.457 133.173,112.304 133.475 M112.200 172.680 C 111.760 172.783,111.175 173.167,110.901 173.534 C 110.626 173.900,87.017 197.600,58.436 226.200 C 13.377 271.289,6.413 278.413,6.038 279.800 C 5.300 282.524,5.459 299.802,6.229 300.571 C 7.099 301.442,7.804 301.358,8.501 300.300 C 8.827 299.805,32.394 276.090,60.873 247.600 C 89.351 219.110,112.963 195.325,113.342 194.745 C 114.589 192.840,114.559 172.259,113.310 172.446 C 113.139 172.472,112.640 172.577,112.200 172.680 M112.200 211.880 C 111.760 211.983,111.171 212.367,110.892 212.734 C 110.612 213.100,87.098 236.710,58.638 265.200 C 30.178 293.690,6.646 317.450,6.346 318.000 C 5.772 319.052,5.281 336.676,5.772 338.631 C 6.506 341.554,4.045 343.858,60.164 287.692 C 89.119 258.711,113.095 234.586,113.442 234.080 C 114.108 233.110,114.462 213.071,113.831 212.050 C 113.541 211.580,113.499 211.576,112.200 211.880 M112.600 251.501 C 111.150 251.797,6.447 356.790,5.996 358.400 C 5.229 361.143,5.495 377.382,6.325 378.406 C 6.815 379.012,7.300 379.222,7.825 379.055 C 8.692 378.779,111.182 276.271,112.981 273.880 L 114.125 272.360 114.085 262.123 C 114.045 251.655,113.984 251.219,112.600 251.501 M120.781 282.303 C 120.220 282.686,96.450 306.330,67.958 334.845 C 39.466 363.359,15.759 386.901,15.277 387.159 C 14.064 387.808,14.181 388.666,15.580 389.390 C 16.633 389.934,36.688 390.000,201.510 390.000 L 386.261 390.000 387.130 389.074 L 388.000 388.148 388.000 335.744 L 388.000 283.339 387.074 282.470 L 386.148 281.600 253.974 281.603 C 128.943 281.605,121.745 281.643,120.781 282.303 M6.646 402.161 C 5.570 404.427,5.867 459.149,6.962 460.358 C 8.127 461.646,41.115 461.685,42.400 460.400 C 43.306 459.494,43.459 457.406,42.736 455.819 L 42.272 454.800 35.598 454.800 C 29.640 454.800,28.853 454.721,28.262 454.069 C 27.661 453.404,27.600 451.019,27.600 428.050 L 27.600 402.764 26.618 401.782 L 25.636 400.800 16.464 400.800 L 7.291 400.800 6.646 402.161 M206.419 401.504 C 205.253 402.448,204.856 405.217,205.777 405.981 C 206.182 406.317,207.946 406.619,210.357 406.764 C 216.213 407.116,215.600 403.972,215.600 433.649 C 215.600 458.667,215.617 459.217,216.400 460.000 C 217.580 461.180,234.278 461.240,235.338 460.069 C 235.939 459.404,236.000 457.019,236.000 434.050 L 236.000 408.764 236.982 407.782 C 237.855 406.909,238.309 406.799,241.082 406.794 C 246.115 406.785,248.123 404.487,245.442 401.806 L 244.436 400.800 225.862 400.800 C 208.728 400.800,207.221 400.855,206.419 401.504 M170.041 410.300 C 169.574 410.685,168.963 411.805,168.682 412.789 C 167.985 415.229,166.754 415.589,163.028 414.438 C 159.316 413.291,153.309 413.274,150.104 414.400 C 148.852 414.840,147.355 415.200,146.778 415.200 C 145.091 415.200,142.550 417.254,138.994 421.491 C 134.621 426.702,134.489 435.510,138.639 445.126 C 139.194 446.412,139.170 446.502,137.806 448.167 C 137.033 449.110,136.400 450.054,136.400 450.263 C 136.400 450.473,135.956 451.246,135.414 451.981 C 134.868 452.721,134.137 454.628,133.774 456.258 C 133.414 457.876,132.958 459.200,132.760 459.200 C 130.471 459.200,133.847 465.611,137.116 467.472 L 139.800 469.000 154.000 469.112 C 162.797 469.181,168.607 469.385,169.270 469.648 L 170.340 470.072 169.774 471.936 C 168.748 475.317,168.873 475.600,171.400 475.600 C 172.847 475.600,173.600 475.435,173.600 475.119 C 173.600 474.855,174.116 474.090,174.746 473.419 C 177.264 470.742,177.613 465.445,175.520 461.694 C 172.743 456.719,171.769 455.998,166.781 455.224 C 162.742 454.598,161.737 453.388,164.464 452.437 C 165.160 452.195,166.305 451.557,167.010 451.020 C 167.714 450.482,168.759 449.925,169.332 449.781 C 170.672 449.445,174.692 444.870,175.857 442.356 C 179.123 435.307,177.636 423.804,172.890 419.403 L 171.822 418.413 173.111 415.799 C 174.676 412.624,174.696 412.153,173.325 410.722 C 172.083 409.426,171.232 409.316,170.041 410.300 M63.505 412.413 C 60.157 412.977,57.603 414.039,55.758 415.636 C 54.768 416.493,53.605 417.383,53.174 417.614 C 52.266 418.100,48.742 424.829,47.107 429.197 C 43.926 437.699,45.538 448.152,51.261 456.132 C 56.021 462.769,68.242 465.450,74.815 461.298 C 75.577 460.817,77.113 459.879,78.228 459.214 C 81.054 457.529,81.688 456.746,83.986 452.107 C 88.490 443.011,88.870 434.720,85.167 426.368 C 84.525 424.921,84.000 423.542,84.000 423.305 C 84.000 423.067,83.217 421.912,82.261 420.737 C 81.304 419.562,80.223 418.020,79.857 417.312 C 79.491 416.603,78.789 415.816,78.296 415.562 C 77.803 415.308,76.998 414.734,76.507 414.287 C 74.719 412.659,67.892 411.675,63.505 412.413 M265.175 412.946 C 263.656 413.217,262.055 413.797,261.375 414.321 C 256.139 418.361,255.388 419.110,253.187 422.485 C 248.531 429.624,246.827 442.963,249.977 447.600 C 250.351 448.150,250.973 449.452,251.359 450.493 C 252.014 452.261,254.134 454.698,256.391 456.279 C 256.900 456.636,257.955 457.633,258.735 458.496 C 263.055 463.279,272.912 464.657,279.134 461.349 C 282.073 459.786,288.400 451.347,288.400 448.989 C 288.400 446.774,284.950 447.069,282.912 449.459 C 278.262 454.910,276.414 456.041,272.024 456.125 C 266.863 456.223,266.001 454.879,266.125 446.914 C 266.229 440.123,265.283 440.641,277.646 440.600 L 287.698 440.567 288.649 439.461 C 289.717 438.220,289.997 433.026,289.171 429.800 C 288.945 428.920,288.529 427.161,288.246 425.891 C 287.940 424.516,287.321 423.140,286.718 422.491 C 286.160 421.891,285.064 420.455,284.283 419.300 C 280.352 413.491,273.982 411.372,265.175 412.946 M306.118 413.192 C 299.108 414.693,292.002 425.432,296.625 427.539 C 299.141 428.685,300.236 428.038,301.187 424.843 C 302.515 420.385,304.498 419.008,310.281 418.527 C 316.035 418.049,317.828 420.194,317.673 427.370 C 317.558 432.660,317.433 432.842,314.831 431.492 C 309.770 428.866,300.235 430.453,295.734 434.669 C 289.573 440.443,290.145 451.870,296.901 457.955 C 302.526 463.021,306.640 463.744,312.990 460.782 C 316.462 459.163,317.453 459.059,318.413 460.215 C 319.023 460.950,330.976 461.085,331.423 460.362 C 331.596 460.084,332.293 460.026,333.347 460.203 C 336.577 460.745,347.235 460.869,347.835 460.371 C 348.306 459.980,348.400 457.005,348.400 442.531 C 348.400 423.781,348.368 424.080,350.572 422.021 L 351.620 421.042 352.510 421.933 L 353.400 422.824 353.400 440.968 C 353.400 463.122,352.514 460.800,360.966 460.800 C 368.851 460.800,368.035 462.967,368.009 442.079 C 367.985 423.625,367.882 424.612,370.100 422.134 C 370.759 421.399,371.051 421.329,372.038 421.673 C 373.398 422.147,373.251 419.679,373.364 443.847 C 373.452 462.765,372.601 460.800,380.709 460.800 C 388.867 460.800,388.000 463.097,388.000 441.488 C 388.000 419.014,387.731 417.726,382.366 414.524 C 379.655 412.906,373.311 412.538,372.323 413.942 C 372.035 414.351,371.080 415.065,370.200 415.529 C 369.320 415.993,368.171 416.713,367.647 417.128 L 366.694 417.883 363.587 415.542 L 360.479 413.200 357.021 413.200 C 354.100 413.200,353.272 413.355,351.685 414.200 C 349.416 415.408,349.127 415.424,348.200 414.400 C 347.539 413.669,346.968 413.600,341.614 413.600 C 334.087 413.600,334.303 413.454,333.946 418.775 C 333.522 425.091,332.305 426.362,331.014 421.836 C 330.176 418.895,327.328 415.887,323.808 414.221 C 321.224 412.998,310.056 412.349,306.118 413.192 M113.200 413.856 C 111.779 414.490,107.153 415.600,105.931 415.600 C 105.563 415.600,104.727 415.150,104.073 414.600 C 102.409 413.200,92.154 413.046,90.800 414.400 C 89.604 415.596,89.539 459.059,90.731 460.138 C 91.938 461.230,102.795 461.110,103.805 459.994 C 104.487 459.241,104.537 458.043,104.567 441.894 C 104.599 425.215,104.629 424.550,105.419 423.205 C 107.280 420.039,112.653 418.216,114.900 419.990 L 116.000 420.858 116.000 440.167 C 116.000 458.764,116.029 459.502,116.775 460.178 C 117.802 461.107,128.447 461.123,129.859 460.198 L 130.723 459.632 130.661 440.316 C 130.601 421.347,130.584 420.971,129.737 419.400 C 126.970 414.272,118.575 411.458,113.200 413.856 M71.245 418.987 C 80.804 422.871,84.459 436.194,79.388 448.670 C 77.151 454.175,69.167 458.305,65.461 455.876 L 64.400 455.182 64.400 437.322 C 64.400 415.812,64.272 416.154,71.245 418.987 M274.203 419.053 C 275.046 420.179,275.299 422.624,275.142 428.162 C 274.966 434.390,274.876 434.518,270.671 434.555 C 266.301 434.593,266.400 434.770,266.400 426.942 L 266.400 420.382 268.300 419.162 C 270.498 417.750,273.189 417.700,274.203 419.053 M160.262 420.039 C 162.596 421.481,162.686 421.955,162.766 433.285 C 162.848 444.879,162.646 446.266,160.654 447.786 C 157.889 449.895,154.997 449.319,152.767 446.214 L 151.474 444.414 151.359 433.707 C 151.235 422.117,151.433 420.608,153.200 419.716 C 154.837 418.891,158.689 419.066,160.262 420.039 M315.597 437.798 C 317.601 439.187,317.680 439.475,317.680 445.425 L 317.680 450.368 316.231 452.136 C 313.775 455.133,309.988 454.915,309.464 451.745 C 308.893 448.290,309.164 438.229,309.855 437.243 C 310.729 435.995,313.363 436.250,315.597 437.798 M146.888 451.492 C 151.408 453.658,151.018 455.200,145.952 455.200 C 142.118 455.200,140.586 453.397,142.429 451.054 C 143.461 449.742,143.182 449.715,146.888 451.492 " stroke="none" fill="#1f1a17" fill-rule="evenodd">
        </path>
    </g>
</svg>